G75*
%MOIN*%
%OFA0B0*%
%FSLAX25Y25*%
%IPPOS*%
%LPD*%
%AMOC8*
5,1,8,0,0,1.08239X$1,22.5*
%
%ADD10C,0.00000*%
%ADD11R,0.03937X0.04331*%
%ADD12R,0.04331X0.03937*%
%ADD13R,0.00984X0.03937*%
%ADD14R,0.26500X0.07087*%
%ADD15R,0.12598X0.03937*%
%ADD16R,0.06299X0.07098*%
%ADD17R,0.07098X0.06299*%
D10*
X0001000Y0001000D02*
X0001000Y0193461D01*
X0249701Y0193461D01*
X0249701Y0001000D01*
X0001000Y0001000D01*
D11*
X0093500Y0117654D03*
X0093500Y0124346D03*
X0073500Y0132654D03*
X0073500Y0139346D03*
X0064346Y0141000D03*
X0057654Y0141000D03*
X0057654Y0131000D03*
X0064346Y0131000D03*
X0191000Y0135154D03*
X0191000Y0141846D03*
X0200154Y0143500D03*
X0206846Y0143500D03*
X0206846Y0133500D03*
X0200154Y0133500D03*
X0193500Y0124346D03*
X0193500Y0117654D03*
D12*
X0196000Y0064346D03*
X0196000Y0057654D03*
X0206000Y0057654D03*
X0206000Y0064346D03*
D13*
X0187437Y0105181D03*
X0185469Y0105181D03*
X0183500Y0105181D03*
X0181531Y0105181D03*
X0179563Y0105181D03*
X0179563Y0121819D03*
X0181531Y0121819D03*
X0183500Y0121819D03*
X0185469Y0121819D03*
X0187437Y0121819D03*
X0087437Y0121819D03*
X0085469Y0121819D03*
X0083500Y0121819D03*
X0081531Y0121819D03*
X0079563Y0121819D03*
X0079563Y0105181D03*
X0081531Y0105181D03*
X0083500Y0105181D03*
X0085469Y0105181D03*
X0087437Y0105181D03*
D14*
X0033500Y0124976D03*
X0033500Y0147024D03*
X0228500Y0147024D03*
X0228500Y0124976D03*
D15*
X0146000Y0128500D03*
X0146000Y0118500D03*
X0146236Y0108500D03*
X0146000Y0088500D03*
X0116000Y0088500D03*
X0116000Y0108500D03*
X0116000Y0118500D03*
X0116000Y0128500D03*
D16*
X0104098Y0148500D03*
X0092902Y0148500D03*
X0084098Y0148500D03*
X0072902Y0148500D03*
D17*
X0166000Y0144098D03*
X0166000Y0132902D03*
X0166000Y0124098D03*
X0166000Y0112902D03*
M02*
