G75*
%MOIN*%
%OFA0B0*%
%FSLAX25Y25*%
%IPPOS*%
%LPD*%
%AMOC8*
5,1,8,0,0,1.08239X$1,22.5*
%
%ADD10C,0.00000*%
%ADD11C,0.01100*%
%ADD12OC8,0.16400*%
%ADD13C,0.05937*%
%ADD14C,0.06000*%
%ADD15C,0.03200*%
%ADD16R,0.03562X0.03562*%
%ADD17C,0.01200*%
D10*
X0001000Y0001000D02*
X0001000Y0193461D01*
X0249701Y0193461D01*
X0249701Y0001000D01*
X0001000Y0001000D01*
D11*
X0041558Y0038300D02*
X0041558Y0042237D01*
X0041558Y0040268D02*
X0039589Y0042237D01*
X0038605Y0042237D01*
X0044067Y0041253D02*
X0044067Y0039284D01*
X0045051Y0038300D01*
X0047019Y0038300D01*
X0048003Y0039284D01*
X0048003Y0041253D01*
X0047019Y0042237D01*
X0045051Y0042237D01*
X0044067Y0041253D01*
X0050332Y0042237D02*
X0052300Y0042237D01*
X0051316Y0043221D02*
X0051316Y0039284D01*
X0050332Y0038300D01*
X0054629Y0038300D02*
X0056597Y0038300D01*
X0055613Y0038300D02*
X0055613Y0042237D01*
X0056597Y0042237D01*
X0055613Y0044205D02*
X0055613Y0045189D01*
X0059106Y0041253D02*
X0059106Y0038300D01*
X0059106Y0041253D02*
X0060090Y0042237D01*
X0063043Y0042237D01*
X0063043Y0038300D01*
X0065552Y0039284D02*
X0065552Y0041253D01*
X0066536Y0042237D01*
X0068504Y0042237D01*
X0069488Y0041253D01*
X0069488Y0039284D01*
X0068504Y0038300D01*
X0066536Y0038300D01*
X0065552Y0039284D01*
X0071997Y0038300D02*
X0071997Y0044205D01*
X0073965Y0042237D01*
X0075934Y0044205D01*
X0075934Y0038300D01*
X0084888Y0038300D02*
X0087841Y0038300D01*
X0088825Y0039284D01*
X0088825Y0042237D01*
X0091244Y0042237D02*
X0092228Y0042237D01*
X0094196Y0040268D01*
X0094196Y0038300D02*
X0094196Y0042237D01*
X0096705Y0041253D02*
X0096705Y0040268D01*
X0100642Y0040268D01*
X0100642Y0039284D02*
X0100642Y0041253D01*
X0099657Y0042237D01*
X0097689Y0042237D01*
X0096705Y0041253D01*
X0097689Y0038300D02*
X0099657Y0038300D01*
X0100642Y0039284D01*
X0102970Y0038300D02*
X0103954Y0039284D01*
X0103954Y0043221D01*
X0102970Y0042237D02*
X0104939Y0042237D01*
X0107267Y0042237D02*
X0109236Y0042237D01*
X0108251Y0043221D02*
X0108251Y0039284D01*
X0107267Y0038300D01*
X0111744Y0038300D02*
X0111744Y0041253D01*
X0112729Y0042237D01*
X0114697Y0042237D01*
X0114697Y0040268D02*
X0111744Y0040268D01*
X0111744Y0038300D02*
X0114697Y0038300D01*
X0115681Y0039284D01*
X0114697Y0040268D01*
X0118190Y0040268D02*
X0118190Y0039284D01*
X0119174Y0038300D01*
X0122127Y0038300D01*
X0122127Y0044205D01*
X0119174Y0044205D01*
X0118190Y0043221D01*
X0118190Y0042237D01*
X0119174Y0041253D01*
X0122127Y0041253D01*
X0119174Y0041253D02*
X0118190Y0040268D01*
X0118190Y0033705D02*
X0122127Y0033705D01*
X0122127Y0030753D01*
X0120158Y0031737D01*
X0119174Y0031737D01*
X0118190Y0030753D01*
X0118190Y0028784D01*
X0119174Y0027800D01*
X0121142Y0027800D01*
X0122127Y0028784D01*
X0124635Y0027800D02*
X0128572Y0027800D01*
X0126604Y0027800D02*
X0126604Y0033705D01*
X0128572Y0031737D01*
X0131081Y0033705D02*
X0135018Y0027800D01*
X0137526Y0027800D02*
X0141463Y0027800D01*
X0137526Y0031737D01*
X0137526Y0032721D01*
X0138511Y0033705D01*
X0140479Y0033705D01*
X0141463Y0032721D01*
X0145940Y0033705D02*
X0145940Y0027800D01*
X0143972Y0027800D02*
X0147909Y0027800D01*
X0147909Y0031737D02*
X0145940Y0033705D01*
X0150417Y0033705D02*
X0154354Y0027800D01*
X0156863Y0027800D02*
X0160800Y0027800D01*
X0158831Y0027800D02*
X0158831Y0033705D01*
X0160800Y0031737D01*
X0163308Y0032721D02*
X0164293Y0033705D01*
X0166261Y0033705D01*
X0167245Y0032721D01*
X0167245Y0028784D01*
X0163308Y0032721D01*
X0163308Y0028784D01*
X0164293Y0027800D01*
X0166261Y0027800D01*
X0167245Y0028784D01*
X0176199Y0030753D02*
X0180136Y0030753D01*
X0179152Y0038300D02*
X0177184Y0038300D01*
X0176199Y0039284D01*
X0176199Y0040268D01*
X0177184Y0041253D01*
X0179152Y0041253D01*
X0180136Y0042237D01*
X0180136Y0043221D01*
X0179152Y0044205D01*
X0177184Y0044205D01*
X0176199Y0043221D01*
X0180136Y0039284D02*
X0179152Y0038300D01*
X0182645Y0038300D02*
X0184613Y0040268D01*
X0183629Y0040268D02*
X0186582Y0040268D01*
X0186582Y0038300D02*
X0186582Y0044205D01*
X0183629Y0044205D01*
X0182645Y0043221D01*
X0182645Y0041253D01*
X0183629Y0040268D01*
X0189090Y0038300D02*
X0189090Y0044205D01*
X0193027Y0044205D02*
X0189090Y0038300D01*
X0193027Y0038300D02*
X0193027Y0044205D01*
X0195536Y0043221D02*
X0196520Y0044205D01*
X0198488Y0044205D01*
X0199473Y0043221D01*
X0199473Y0039284D01*
X0198488Y0038300D01*
X0196520Y0038300D01*
X0195536Y0039284D01*
X0192043Y0033705D02*
X0190074Y0033705D01*
X0189090Y0032721D01*
X0190074Y0030753D02*
X0189090Y0029768D01*
X0189090Y0028784D01*
X0190074Y0027800D01*
X0192043Y0027800D01*
X0193027Y0028784D01*
X0192043Y0030753D02*
X0190074Y0030753D01*
X0192043Y0030753D02*
X0193027Y0031737D01*
X0193027Y0032721D01*
X0192043Y0033705D01*
X0195536Y0027800D02*
X0199473Y0027800D01*
X0199473Y0033705D01*
X0201981Y0032721D02*
X0202965Y0033705D01*
X0204934Y0033705D01*
X0205918Y0032721D01*
X0205918Y0028784D01*
X0204934Y0027800D01*
X0202965Y0027800D01*
X0201981Y0028784D01*
X0201981Y0032721D01*
X0208427Y0032721D02*
X0210395Y0030753D01*
X0210395Y0027800D01*
X0210395Y0030753D02*
X0212364Y0032721D01*
X0212364Y0033705D01*
X0214872Y0031737D02*
X0214872Y0027800D01*
X0214872Y0030753D02*
X0218809Y0030753D01*
X0218809Y0031737D02*
X0218809Y0027800D01*
X0221318Y0027800D02*
X0225255Y0027800D01*
X0225255Y0033705D01*
X0227763Y0033705D02*
X0231700Y0033705D01*
X0231700Y0027800D01*
X0231700Y0030753D02*
X0229732Y0030753D01*
X0231700Y0038300D02*
X0227763Y0038300D01*
X0225255Y0038300D02*
X0225255Y0042237D01*
X0223286Y0044205D01*
X0221318Y0042237D01*
X0221318Y0038300D01*
X0218809Y0038300D02*
X0218809Y0042237D01*
X0216841Y0044205D01*
X0214872Y0042237D01*
X0214872Y0038300D01*
X0212364Y0039284D02*
X0211379Y0038300D01*
X0209411Y0038300D01*
X0208427Y0039284D01*
X0208427Y0040268D01*
X0209411Y0041253D01*
X0211379Y0041253D01*
X0212364Y0042237D01*
X0212364Y0043221D01*
X0211379Y0044205D01*
X0209411Y0044205D01*
X0208427Y0043221D01*
X0214872Y0041253D02*
X0218809Y0041253D01*
X0221318Y0041253D02*
X0225255Y0041253D01*
X0231700Y0044205D02*
X0231700Y0038300D01*
X0218809Y0031737D02*
X0216841Y0033705D01*
X0214872Y0031737D01*
X0208427Y0032721D02*
X0208427Y0033705D01*
X0167245Y0041253D02*
X0163308Y0041253D01*
X0154354Y0041253D02*
X0150417Y0041253D01*
X0147909Y0040268D02*
X0144956Y0040268D01*
X0143972Y0041253D01*
X0143972Y0043221D01*
X0144956Y0044205D01*
X0147909Y0044205D01*
X0147909Y0038300D01*
X0150417Y0038300D02*
X0150417Y0044205D01*
X0154354Y0044205D02*
X0154354Y0038300D01*
X0145940Y0040268D02*
X0143972Y0038300D01*
X0141463Y0038300D02*
X0141463Y0044205D01*
X0138511Y0044205D01*
X0137526Y0043221D01*
X0137526Y0041253D01*
X0138511Y0040268D01*
X0141463Y0040268D01*
X0135018Y0038300D02*
X0131081Y0042237D01*
X0131081Y0043221D01*
X0132065Y0044205D01*
X0134033Y0044205D01*
X0135018Y0043221D01*
X0135018Y0038300D02*
X0131081Y0038300D01*
X0086856Y0036332D02*
X0085872Y0036332D01*
X0084888Y0037316D01*
X0084888Y0042237D01*
D12*
X0033500Y0101000D03*
X0033500Y0171000D03*
X0066000Y0171000D03*
X0093500Y0171000D03*
X0168500Y0171000D03*
X0196000Y0171000D03*
X0228500Y0171000D03*
X0228500Y0101000D03*
D13*
X0216000Y0076469D02*
X0216000Y0070531D01*
X0206000Y0070531D02*
X0206000Y0076469D01*
X0196000Y0076469D02*
X0196000Y0070531D01*
X0186000Y0070531D02*
X0186000Y0076469D01*
X0176000Y0076469D02*
X0176000Y0070531D01*
X0166000Y0070531D02*
X0166000Y0076469D01*
X0156000Y0076469D02*
X0156000Y0070531D01*
X0146000Y0070531D02*
X0146000Y0076469D01*
X0136000Y0076469D02*
X0136000Y0070531D01*
X0126000Y0070531D02*
X0126000Y0076469D01*
X0116000Y0076469D02*
X0116000Y0070531D01*
X0106000Y0070531D02*
X0106000Y0076469D01*
X0096000Y0076469D02*
X0096000Y0070531D01*
X0086000Y0070531D02*
X0086000Y0076469D01*
X0076000Y0076469D02*
X0076000Y0070531D01*
X0066000Y0070531D02*
X0066000Y0076469D01*
X0056000Y0076469D02*
X0056000Y0070531D01*
X0046000Y0070531D02*
X0046000Y0076469D01*
X0036000Y0076469D02*
X0036000Y0070531D01*
X0026000Y0070531D02*
X0026000Y0076469D01*
X0026000Y0016469D02*
X0026000Y0010531D01*
X0036000Y0010531D02*
X0036000Y0016469D01*
X0046000Y0016469D02*
X0046000Y0010531D01*
X0056000Y0010531D02*
X0056000Y0016469D01*
X0066000Y0016469D02*
X0066000Y0010531D01*
X0076000Y0010531D02*
X0076000Y0016469D01*
X0086000Y0016469D02*
X0086000Y0010531D01*
X0096000Y0010531D02*
X0096000Y0016469D01*
X0106000Y0016469D02*
X0106000Y0010531D01*
X0116000Y0010531D02*
X0116000Y0016469D01*
X0126000Y0016469D02*
X0126000Y0010531D01*
X0136000Y0010531D02*
X0136000Y0016469D01*
X0146000Y0016469D02*
X0146000Y0010531D01*
X0156000Y0010531D02*
X0156000Y0016469D01*
X0166000Y0016469D02*
X0166000Y0010531D01*
X0176000Y0010531D02*
X0176000Y0016469D01*
X0186000Y0016469D02*
X0186000Y0010531D01*
X0196000Y0010531D02*
X0196000Y0016469D01*
X0206000Y0016469D02*
X0206000Y0010531D01*
X0216000Y0010531D02*
X0216000Y0016469D01*
D14*
X0146500Y0153500D02*
X0140500Y0153500D01*
X0121500Y0153500D02*
X0115500Y0153500D01*
X0115500Y0173500D02*
X0121500Y0173500D01*
X0140500Y0173500D02*
X0146500Y0173500D01*
D15*
X0176000Y0146000D02*
X0173500Y0143500D01*
X0201000Y0116000D02*
X0201000Y0098500D01*
X0186000Y0083500D01*
X0101000Y0083500D01*
X0101000Y0116000D01*
X0116000Y0136000D02*
X0161000Y0091000D01*
X0116000Y0136000D02*
X0023500Y0136000D01*
X0011000Y0123500D01*
X0011000Y0083500D01*
X0021000Y0073500D01*
X0026000Y0073500D01*
X0026000Y0078500D01*
X0031000Y0083500D01*
X0101000Y0083500D01*
X0026000Y0073500D02*
X0026000Y0013500D01*
D16*
X0108500Y0093500D03*
X0101000Y0116000D03*
X0093500Y0131000D03*
X0061000Y0148500D03*
X0079563Y0095914D03*
X0161000Y0091000D03*
X0201000Y0116000D03*
X0201000Y0126000D03*
X0173500Y0143500D03*
D17*
X0156000Y0143500D02*
X0156000Y0151000D01*
X0208500Y0151000D01*
X0208500Y0081000D01*
X0241000Y0081000D01*
X0241000Y0006000D01*
X0036593Y0006000D01*
X0037070Y0006075D01*
X0037754Y0006298D01*
X0038394Y0006624D01*
X0038976Y0007047D01*
X0039485Y0007555D01*
X0039907Y0008137D01*
X0040234Y0008778D01*
X0040456Y0009462D01*
X0040568Y0010172D01*
X0040568Y0013116D01*
X0036384Y0013116D01*
X0036384Y0013884D01*
X0035616Y0013884D01*
X0035616Y0013116D01*
X0031431Y0013116D01*
X0031431Y0010172D01*
X0031544Y0009462D01*
X0031766Y0008778D01*
X0032093Y0008137D01*
X0032515Y0007555D01*
X0033024Y0007047D01*
X0033606Y0006624D01*
X0034246Y0006298D01*
X0034930Y0006075D01*
X0035407Y0006000D01*
X0003500Y0006000D01*
X0003500Y0083500D01*
X0008200Y0083500D01*
X0008200Y0082943D01*
X0008626Y0081914D01*
X0009414Y0081126D01*
X0018626Y0071914D01*
X0019414Y0071126D01*
X0020443Y0070700D01*
X0021831Y0070700D01*
X0021831Y0069702D01*
X0022466Y0068170D01*
X0023200Y0067436D01*
X0023200Y0019564D01*
X0022466Y0018830D01*
X0021831Y0017298D01*
X0021831Y0009702D01*
X0022466Y0008170D01*
X0023639Y0006998D01*
X0025171Y0006363D01*
X0026829Y0006363D01*
X0028361Y0006998D01*
X0029534Y0008170D01*
X0030168Y0009702D01*
X0030168Y0017298D01*
X0029534Y0018830D01*
X0028800Y0019564D01*
X0028800Y0067436D01*
X0029534Y0068170D01*
X0030168Y0069702D01*
X0030168Y0077298D01*
X0029755Y0078295D01*
X0032160Y0080700D01*
X0034242Y0080700D01*
X0033606Y0080376D01*
X0033024Y0079953D01*
X0032515Y0079445D01*
X0032093Y0078863D01*
X0031766Y0078222D01*
X0031544Y0077538D01*
X0031431Y0076828D01*
X0031431Y0073884D01*
X0035616Y0073884D01*
X0035616Y0073116D01*
X0036384Y0073116D01*
X0036384Y0065967D01*
X0037070Y0066075D01*
X0037754Y0066298D01*
X0038394Y0066624D01*
X0038976Y0067047D01*
X0039485Y0067555D01*
X0039907Y0068137D01*
X0040234Y0068778D01*
X0040456Y0069462D01*
X0040568Y0070172D01*
X0040568Y0073116D01*
X0036384Y0073116D01*
X0036384Y0073884D01*
X0040568Y0073884D01*
X0040568Y0076828D01*
X0040456Y0077538D01*
X0040234Y0078222D01*
X0039907Y0078863D01*
X0039485Y0079445D01*
X0038976Y0079953D01*
X0038394Y0080376D01*
X0037758Y0080700D01*
X0186557Y0080700D01*
X0187586Y0081126D01*
X0203374Y0096914D01*
X0203800Y0097943D01*
X0203800Y0113541D01*
X0203981Y0113722D01*
X0203981Y0118278D01*
X0203278Y0118981D01*
X0198722Y0118981D01*
X0198019Y0118278D01*
X0198019Y0113722D01*
X0198200Y0113541D01*
X0198200Y0099660D01*
X0184840Y0086300D01*
X0103800Y0086300D01*
X0103800Y0113541D01*
X0103981Y0113722D01*
X0103981Y0118278D01*
X0103278Y0118981D01*
X0098722Y0118981D01*
X0098019Y0118278D01*
X0098019Y0113722D01*
X0098200Y0113541D01*
X0098200Y0086300D01*
X0056000Y0086300D01*
X0056000Y0133200D01*
X0114840Y0133200D01*
X0158019Y0090021D01*
X0158019Y0088722D01*
X0158722Y0088019D01*
X0163278Y0088019D01*
X0163981Y0088722D01*
X0163981Y0093278D01*
X0163278Y0093981D01*
X0161979Y0093981D01*
X0117586Y0138374D01*
X0116557Y0138800D01*
X0056000Y0138800D01*
X0056000Y0151000D01*
X0106000Y0151000D01*
X0106000Y0143500D01*
X0156000Y0143500D01*
X0156000Y0143623D02*
X0208500Y0143623D01*
X0208500Y0144821D02*
X0156000Y0144821D01*
X0156000Y0146020D02*
X0208500Y0146020D01*
X0208500Y0147218D02*
X0156000Y0147218D01*
X0156000Y0148417D02*
X0208500Y0148417D01*
X0208500Y0149615D02*
X0156000Y0149615D01*
X0156000Y0150814D02*
X0208500Y0150814D01*
X0208500Y0142424D02*
X0056000Y0142424D01*
X0056000Y0141226D02*
X0208500Y0141226D01*
X0208500Y0140027D02*
X0056000Y0140027D01*
X0056000Y0138829D02*
X0208500Y0138829D01*
X0208500Y0137630D02*
X0118329Y0137630D01*
X0119528Y0136432D02*
X0208500Y0136432D01*
X0208500Y0135233D02*
X0120727Y0135233D01*
X0121925Y0134035D02*
X0208500Y0134035D01*
X0208500Y0132836D02*
X0123124Y0132836D01*
X0124322Y0131638D02*
X0208500Y0131638D01*
X0208500Y0130439D02*
X0125521Y0130439D01*
X0126719Y0129241D02*
X0208500Y0129241D01*
X0208500Y0128042D02*
X0127918Y0128042D01*
X0129116Y0126844D02*
X0208500Y0126844D01*
X0208500Y0125645D02*
X0130315Y0125645D01*
X0131513Y0124447D02*
X0208500Y0124447D01*
X0208500Y0123248D02*
X0132712Y0123248D01*
X0133910Y0122050D02*
X0208500Y0122050D01*
X0208500Y0120851D02*
X0135109Y0120851D01*
X0136307Y0119653D02*
X0208500Y0119653D01*
X0208500Y0118454D02*
X0203805Y0118454D01*
X0203981Y0117256D02*
X0208500Y0117256D01*
X0208500Y0116057D02*
X0203981Y0116057D01*
X0203981Y0114859D02*
X0208500Y0114859D01*
X0208500Y0113660D02*
X0203919Y0113660D01*
X0203800Y0112462D02*
X0208500Y0112462D01*
X0208500Y0111263D02*
X0203800Y0111263D01*
X0203800Y0110065D02*
X0208500Y0110065D01*
X0208500Y0108866D02*
X0203800Y0108866D01*
X0203800Y0107668D02*
X0208500Y0107668D01*
X0208500Y0106469D02*
X0203800Y0106469D01*
X0203800Y0105270D02*
X0208500Y0105270D01*
X0208500Y0104072D02*
X0203800Y0104072D01*
X0203800Y0102873D02*
X0208500Y0102873D01*
X0208500Y0101675D02*
X0203800Y0101675D01*
X0203800Y0100476D02*
X0208500Y0100476D01*
X0208500Y0099278D02*
X0203800Y0099278D01*
X0203800Y0098079D02*
X0208500Y0098079D01*
X0208500Y0096881D02*
X0203341Y0096881D01*
X0202142Y0095682D02*
X0208500Y0095682D01*
X0208500Y0094484D02*
X0200944Y0094484D01*
X0199745Y0093285D02*
X0208500Y0093285D01*
X0208500Y0092087D02*
X0198547Y0092087D01*
X0197348Y0090888D02*
X0208500Y0090888D01*
X0208500Y0089690D02*
X0196150Y0089690D01*
X0194951Y0088491D02*
X0208500Y0088491D01*
X0208500Y0087293D02*
X0193753Y0087293D01*
X0192554Y0086094D02*
X0208500Y0086094D01*
X0208500Y0084896D02*
X0191356Y0084896D01*
X0190157Y0083697D02*
X0208500Y0083697D01*
X0208500Y0082499D02*
X0188959Y0082499D01*
X0187760Y0081300D02*
X0208500Y0081300D01*
X0208121Y0080102D02*
X0213879Y0080102D01*
X0213639Y0080002D02*
X0212466Y0078830D01*
X0211831Y0077298D01*
X0211831Y0069702D01*
X0212466Y0068170D01*
X0213639Y0066998D01*
X0215171Y0066363D01*
X0216829Y0066363D01*
X0218361Y0066998D01*
X0219534Y0068170D01*
X0220168Y0069702D01*
X0220168Y0077298D01*
X0219534Y0078830D01*
X0218361Y0080002D01*
X0216829Y0080637D01*
X0215171Y0080637D01*
X0213639Y0080002D01*
X0212540Y0078903D02*
X0209460Y0078903D01*
X0209534Y0078830D02*
X0208361Y0080002D01*
X0206829Y0080637D01*
X0205171Y0080637D01*
X0203639Y0080002D01*
X0202466Y0078830D01*
X0201831Y0077298D01*
X0201831Y0069702D01*
X0202466Y0068170D01*
X0203639Y0066998D01*
X0205171Y0066363D01*
X0206829Y0066363D01*
X0208361Y0066998D01*
X0209534Y0068170D01*
X0210168Y0069702D01*
X0210168Y0077298D01*
X0209534Y0078830D01*
X0210000Y0077705D02*
X0212000Y0077705D01*
X0211831Y0076506D02*
X0210168Y0076506D01*
X0210168Y0075308D02*
X0211831Y0075308D01*
X0211831Y0074109D02*
X0210168Y0074109D01*
X0210168Y0072911D02*
X0211831Y0072911D01*
X0211831Y0071712D02*
X0210168Y0071712D01*
X0210168Y0070514D02*
X0211831Y0070514D01*
X0211992Y0069315D02*
X0210008Y0069315D01*
X0209480Y0068117D02*
X0212520Y0068117D01*
X0213831Y0066918D02*
X0208169Y0066918D01*
X0203831Y0066918D02*
X0198169Y0066918D01*
X0198361Y0066998D02*
X0199534Y0068170D01*
X0200168Y0069702D01*
X0200168Y0077298D01*
X0199534Y0078830D01*
X0198361Y0080002D01*
X0196829Y0080637D01*
X0195171Y0080637D01*
X0193639Y0080002D01*
X0192466Y0078830D01*
X0191831Y0077298D01*
X0191831Y0069702D01*
X0192466Y0068170D01*
X0193639Y0066998D01*
X0195171Y0066363D01*
X0196829Y0066363D01*
X0198361Y0066998D01*
X0199480Y0068117D02*
X0202520Y0068117D01*
X0201992Y0069315D02*
X0200008Y0069315D01*
X0200168Y0070514D02*
X0201831Y0070514D01*
X0201831Y0071712D02*
X0200168Y0071712D01*
X0200168Y0072911D02*
X0201831Y0072911D01*
X0201831Y0074109D02*
X0200168Y0074109D01*
X0200168Y0075308D02*
X0201831Y0075308D01*
X0201831Y0076506D02*
X0200168Y0076506D01*
X0200000Y0077705D02*
X0202000Y0077705D01*
X0202540Y0078903D02*
X0199460Y0078903D01*
X0198121Y0080102D02*
X0203879Y0080102D01*
X0193879Y0080102D02*
X0188121Y0080102D01*
X0188361Y0080002D02*
X0186829Y0080637D01*
X0185171Y0080637D01*
X0183639Y0080002D01*
X0182466Y0078830D01*
X0181831Y0077298D01*
X0181831Y0069702D01*
X0182466Y0068170D01*
X0183639Y0066998D01*
X0185171Y0066363D01*
X0186829Y0066363D01*
X0188361Y0066998D01*
X0189534Y0068170D01*
X0190168Y0069702D01*
X0190168Y0077298D01*
X0189534Y0078830D01*
X0188361Y0080002D01*
X0189460Y0078903D02*
X0192540Y0078903D01*
X0192000Y0077705D02*
X0190000Y0077705D01*
X0190168Y0076506D02*
X0191831Y0076506D01*
X0191831Y0075308D02*
X0190168Y0075308D01*
X0190168Y0074109D02*
X0191831Y0074109D01*
X0191831Y0072911D02*
X0190168Y0072911D01*
X0190168Y0071712D02*
X0191831Y0071712D01*
X0191831Y0070514D02*
X0190168Y0070514D01*
X0190008Y0069315D02*
X0191992Y0069315D01*
X0192520Y0068117D02*
X0189480Y0068117D01*
X0188169Y0066918D02*
X0193831Y0066918D01*
X0183831Y0066918D02*
X0178169Y0066918D01*
X0178361Y0066998D02*
X0179534Y0068170D01*
X0180168Y0069702D01*
X0180168Y0077298D01*
X0179534Y0078830D01*
X0178361Y0080002D01*
X0176829Y0080637D01*
X0175171Y0080637D01*
X0173639Y0080002D01*
X0172466Y0078830D01*
X0171831Y0077298D01*
X0171831Y0069702D01*
X0172466Y0068170D01*
X0173639Y0066998D01*
X0175171Y0066363D01*
X0176829Y0066363D01*
X0178361Y0066998D01*
X0179480Y0068117D02*
X0182520Y0068117D01*
X0181992Y0069315D02*
X0180008Y0069315D01*
X0180168Y0070514D02*
X0181831Y0070514D01*
X0181831Y0071712D02*
X0180168Y0071712D01*
X0180168Y0072911D02*
X0181831Y0072911D01*
X0181831Y0074109D02*
X0180168Y0074109D01*
X0180168Y0075308D02*
X0181831Y0075308D01*
X0181831Y0076506D02*
X0180168Y0076506D01*
X0180000Y0077705D02*
X0182000Y0077705D01*
X0182540Y0078903D02*
X0179460Y0078903D01*
X0178121Y0080102D02*
X0183879Y0080102D01*
X0185833Y0087293D02*
X0103800Y0087293D01*
X0103800Y0088491D02*
X0158249Y0088491D01*
X0158019Y0089690D02*
X0103800Y0089690D01*
X0103800Y0090888D02*
X0157152Y0090888D01*
X0155953Y0092087D02*
X0103800Y0092087D01*
X0103800Y0093285D02*
X0154755Y0093285D01*
X0153556Y0094484D02*
X0103800Y0094484D01*
X0103800Y0095682D02*
X0152358Y0095682D01*
X0151159Y0096881D02*
X0103800Y0096881D01*
X0103800Y0098079D02*
X0149961Y0098079D01*
X0148762Y0099278D02*
X0103800Y0099278D01*
X0103800Y0100476D02*
X0147564Y0100476D01*
X0146365Y0101675D02*
X0103800Y0101675D01*
X0103800Y0102873D02*
X0145167Y0102873D01*
X0143968Y0104072D02*
X0103800Y0104072D01*
X0103800Y0105270D02*
X0142770Y0105270D01*
X0141571Y0106469D02*
X0103800Y0106469D01*
X0103800Y0107668D02*
X0140373Y0107668D01*
X0139174Y0108866D02*
X0103800Y0108866D01*
X0103800Y0110065D02*
X0137976Y0110065D01*
X0136777Y0111263D02*
X0103800Y0111263D01*
X0103800Y0112462D02*
X0135579Y0112462D01*
X0134380Y0113660D02*
X0103919Y0113660D01*
X0103981Y0114859D02*
X0133182Y0114859D01*
X0131983Y0116057D02*
X0103981Y0116057D01*
X0103981Y0117256D02*
X0130785Y0117256D01*
X0129586Y0118454D02*
X0103805Y0118454D01*
X0098195Y0118454D02*
X0056000Y0118454D01*
X0056000Y0117256D02*
X0098019Y0117256D01*
X0098019Y0116057D02*
X0056000Y0116057D01*
X0056000Y0114859D02*
X0098019Y0114859D01*
X0098081Y0113660D02*
X0056000Y0113660D01*
X0056000Y0112462D02*
X0098200Y0112462D01*
X0098200Y0111263D02*
X0056000Y0111263D01*
X0056000Y0110065D02*
X0098200Y0110065D01*
X0098200Y0108866D02*
X0056000Y0108866D01*
X0056000Y0107668D02*
X0098200Y0107668D01*
X0098200Y0106469D02*
X0056000Y0106469D01*
X0056000Y0105270D02*
X0098200Y0105270D01*
X0098200Y0104072D02*
X0056000Y0104072D01*
X0056000Y0102873D02*
X0098200Y0102873D01*
X0098200Y0101675D02*
X0056000Y0101675D01*
X0056000Y0100476D02*
X0098200Y0100476D01*
X0098200Y0099278D02*
X0056000Y0099278D01*
X0056000Y0098079D02*
X0098200Y0098079D01*
X0098200Y0096881D02*
X0056000Y0096881D01*
X0056000Y0095682D02*
X0098200Y0095682D01*
X0098200Y0094484D02*
X0056000Y0094484D01*
X0056000Y0093285D02*
X0098200Y0093285D01*
X0098200Y0092087D02*
X0056000Y0092087D01*
X0056000Y0090888D02*
X0098200Y0090888D01*
X0098200Y0089690D02*
X0056000Y0089690D01*
X0056000Y0088491D02*
X0098200Y0088491D01*
X0098200Y0087293D02*
X0056000Y0087293D01*
X0055171Y0080637D02*
X0053639Y0080002D01*
X0052466Y0078830D01*
X0051831Y0077298D01*
X0051831Y0069702D01*
X0052466Y0068170D01*
X0053639Y0066998D01*
X0055171Y0066363D01*
X0056829Y0066363D01*
X0058361Y0066998D01*
X0059534Y0068170D01*
X0060168Y0069702D01*
X0060168Y0077298D01*
X0059534Y0078830D01*
X0058361Y0080002D01*
X0056829Y0080637D01*
X0055171Y0080637D01*
X0053879Y0080102D02*
X0048121Y0080102D01*
X0048361Y0080002D02*
X0046829Y0080637D01*
X0045171Y0080637D01*
X0043639Y0080002D01*
X0042466Y0078830D01*
X0041831Y0077298D01*
X0041831Y0069702D01*
X0042466Y0068170D01*
X0043639Y0066998D01*
X0045171Y0066363D01*
X0046829Y0066363D01*
X0048361Y0066998D01*
X0049534Y0068170D01*
X0050168Y0069702D01*
X0050168Y0077298D01*
X0049534Y0078830D01*
X0048361Y0080002D01*
X0049460Y0078903D02*
X0052540Y0078903D01*
X0052000Y0077705D02*
X0050000Y0077705D01*
X0050168Y0076506D02*
X0051831Y0076506D01*
X0051831Y0075308D02*
X0050168Y0075308D01*
X0050168Y0074109D02*
X0051831Y0074109D01*
X0051831Y0072911D02*
X0050168Y0072911D01*
X0050168Y0071712D02*
X0051831Y0071712D01*
X0051831Y0070514D02*
X0050168Y0070514D01*
X0050008Y0069315D02*
X0051992Y0069315D01*
X0052520Y0068117D02*
X0049480Y0068117D01*
X0048169Y0066918D02*
X0053831Y0066918D01*
X0058169Y0066918D02*
X0063831Y0066918D01*
X0063639Y0066998D02*
X0065171Y0066363D01*
X0066829Y0066363D01*
X0068361Y0066998D01*
X0069534Y0068170D01*
X0070168Y0069702D01*
X0070168Y0077298D01*
X0069534Y0078830D01*
X0068361Y0080002D01*
X0066829Y0080637D01*
X0065171Y0080637D01*
X0063639Y0080002D01*
X0062466Y0078830D01*
X0061831Y0077298D01*
X0061831Y0069702D01*
X0062466Y0068170D01*
X0063639Y0066998D01*
X0062520Y0068117D02*
X0059480Y0068117D01*
X0060008Y0069315D02*
X0061992Y0069315D01*
X0061831Y0070514D02*
X0060168Y0070514D01*
X0060168Y0071712D02*
X0061831Y0071712D01*
X0061831Y0072911D02*
X0060168Y0072911D01*
X0060168Y0074109D02*
X0061831Y0074109D01*
X0061831Y0075308D02*
X0060168Y0075308D01*
X0060168Y0076506D02*
X0061831Y0076506D01*
X0062000Y0077705D02*
X0060000Y0077705D01*
X0059460Y0078903D02*
X0062540Y0078903D01*
X0063879Y0080102D02*
X0058121Y0080102D01*
X0068121Y0080102D02*
X0073879Y0080102D01*
X0073639Y0080002D02*
X0072466Y0078830D01*
X0071831Y0077298D01*
X0071831Y0069702D01*
X0072466Y0068170D01*
X0073639Y0066998D01*
X0075171Y0066363D01*
X0076829Y0066363D01*
X0078361Y0066998D01*
X0079534Y0068170D01*
X0080168Y0069702D01*
X0080168Y0077298D01*
X0079534Y0078830D01*
X0078361Y0080002D01*
X0076829Y0080637D01*
X0075171Y0080637D01*
X0073639Y0080002D01*
X0072540Y0078903D02*
X0069460Y0078903D01*
X0070000Y0077705D02*
X0072000Y0077705D01*
X0071831Y0076506D02*
X0070168Y0076506D01*
X0070168Y0075308D02*
X0071831Y0075308D01*
X0071831Y0074109D02*
X0070168Y0074109D01*
X0070168Y0072911D02*
X0071831Y0072911D01*
X0071831Y0071712D02*
X0070168Y0071712D01*
X0070168Y0070514D02*
X0071831Y0070514D01*
X0071992Y0069315D02*
X0070008Y0069315D01*
X0069480Y0068117D02*
X0072520Y0068117D01*
X0073831Y0066918D02*
X0068169Y0066918D01*
X0078169Y0066918D02*
X0083831Y0066918D01*
X0083639Y0066998D02*
X0085171Y0066363D01*
X0086829Y0066363D01*
X0088361Y0066998D01*
X0089534Y0068170D01*
X0090168Y0069702D01*
X0090168Y0077298D01*
X0089534Y0078830D01*
X0088361Y0080002D01*
X0086829Y0080637D01*
X0085171Y0080637D01*
X0083639Y0080002D01*
X0082466Y0078830D01*
X0081831Y0077298D01*
X0081831Y0069702D01*
X0082466Y0068170D01*
X0083639Y0066998D01*
X0082520Y0068117D02*
X0079480Y0068117D01*
X0080008Y0069315D02*
X0081992Y0069315D01*
X0081831Y0070514D02*
X0080168Y0070514D01*
X0080168Y0071712D02*
X0081831Y0071712D01*
X0081831Y0072911D02*
X0080168Y0072911D01*
X0080168Y0074109D02*
X0081831Y0074109D01*
X0081831Y0075308D02*
X0080168Y0075308D01*
X0080168Y0076506D02*
X0081831Y0076506D01*
X0082000Y0077705D02*
X0080000Y0077705D01*
X0079460Y0078903D02*
X0082540Y0078903D01*
X0083879Y0080102D02*
X0078121Y0080102D01*
X0088121Y0080102D02*
X0093879Y0080102D01*
X0093639Y0080002D02*
X0092466Y0078830D01*
X0091831Y0077298D01*
X0091831Y0069702D01*
X0092466Y0068170D01*
X0093639Y0066998D01*
X0095171Y0066363D01*
X0096829Y0066363D01*
X0098361Y0066998D01*
X0099534Y0068170D01*
X0100168Y0069702D01*
X0100168Y0077298D01*
X0099534Y0078830D01*
X0098361Y0080002D01*
X0096829Y0080637D01*
X0095171Y0080637D01*
X0093639Y0080002D01*
X0092540Y0078903D02*
X0089460Y0078903D01*
X0090000Y0077705D02*
X0092000Y0077705D01*
X0091831Y0076506D02*
X0090168Y0076506D01*
X0090168Y0075308D02*
X0091831Y0075308D01*
X0091831Y0074109D02*
X0090168Y0074109D01*
X0090168Y0072911D02*
X0091831Y0072911D01*
X0091831Y0071712D02*
X0090168Y0071712D01*
X0090168Y0070514D02*
X0091831Y0070514D01*
X0091992Y0069315D02*
X0090008Y0069315D01*
X0089480Y0068117D02*
X0092520Y0068117D01*
X0093831Y0066918D02*
X0088169Y0066918D01*
X0098169Y0066918D02*
X0103831Y0066918D01*
X0103639Y0066998D02*
X0105171Y0066363D01*
X0106829Y0066363D01*
X0108361Y0066998D01*
X0109534Y0068170D01*
X0110168Y0069702D01*
X0110168Y0077298D01*
X0109534Y0078830D01*
X0108361Y0080002D01*
X0106829Y0080637D01*
X0105171Y0080637D01*
X0103639Y0080002D01*
X0102466Y0078830D01*
X0101831Y0077298D01*
X0101831Y0069702D01*
X0102466Y0068170D01*
X0103639Y0066998D01*
X0102520Y0068117D02*
X0099480Y0068117D01*
X0100008Y0069315D02*
X0101992Y0069315D01*
X0101831Y0070514D02*
X0100168Y0070514D01*
X0100168Y0071712D02*
X0101831Y0071712D01*
X0101831Y0072911D02*
X0100168Y0072911D01*
X0100168Y0074109D02*
X0101831Y0074109D01*
X0101831Y0075308D02*
X0100168Y0075308D01*
X0100168Y0076506D02*
X0101831Y0076506D01*
X0102000Y0077705D02*
X0100000Y0077705D01*
X0099460Y0078903D02*
X0102540Y0078903D01*
X0103879Y0080102D02*
X0098121Y0080102D01*
X0108121Y0080102D02*
X0113879Y0080102D01*
X0113639Y0080002D02*
X0112466Y0078830D01*
X0111831Y0077298D01*
X0111831Y0069702D01*
X0112466Y0068170D01*
X0113639Y0066998D01*
X0115171Y0066363D01*
X0116829Y0066363D01*
X0118361Y0066998D01*
X0119534Y0068170D01*
X0120168Y0069702D01*
X0120168Y0077298D01*
X0119534Y0078830D01*
X0118361Y0080002D01*
X0116829Y0080637D01*
X0115171Y0080637D01*
X0113639Y0080002D01*
X0112540Y0078903D02*
X0109460Y0078903D01*
X0110000Y0077705D02*
X0112000Y0077705D01*
X0111831Y0076506D02*
X0110168Y0076506D01*
X0110168Y0075308D02*
X0111831Y0075308D01*
X0111831Y0074109D02*
X0110168Y0074109D01*
X0110168Y0072911D02*
X0111831Y0072911D01*
X0111831Y0071712D02*
X0110168Y0071712D01*
X0110168Y0070514D02*
X0111831Y0070514D01*
X0111992Y0069315D02*
X0110008Y0069315D01*
X0109480Y0068117D02*
X0112520Y0068117D01*
X0113831Y0066918D02*
X0108169Y0066918D01*
X0118169Y0066918D02*
X0123831Y0066918D01*
X0123639Y0066998D02*
X0125171Y0066363D01*
X0126829Y0066363D01*
X0128361Y0066998D01*
X0129534Y0068170D01*
X0130168Y0069702D01*
X0130168Y0077298D01*
X0129534Y0078830D01*
X0128361Y0080002D01*
X0126829Y0080637D01*
X0125171Y0080637D01*
X0123639Y0080002D01*
X0122466Y0078830D01*
X0121831Y0077298D01*
X0121831Y0069702D01*
X0122466Y0068170D01*
X0123639Y0066998D01*
X0122520Y0068117D02*
X0119480Y0068117D01*
X0120008Y0069315D02*
X0121992Y0069315D01*
X0121831Y0070514D02*
X0120168Y0070514D01*
X0120168Y0071712D02*
X0121831Y0071712D01*
X0121831Y0072911D02*
X0120168Y0072911D01*
X0120168Y0074109D02*
X0121831Y0074109D01*
X0121831Y0075308D02*
X0120168Y0075308D01*
X0120168Y0076506D02*
X0121831Y0076506D01*
X0122000Y0077705D02*
X0120000Y0077705D01*
X0119460Y0078903D02*
X0122540Y0078903D01*
X0123879Y0080102D02*
X0118121Y0080102D01*
X0128121Y0080102D02*
X0133879Y0080102D01*
X0133639Y0080002D02*
X0132466Y0078830D01*
X0131831Y0077298D01*
X0131831Y0069702D01*
X0132466Y0068170D01*
X0133639Y0066998D01*
X0135171Y0066363D01*
X0136829Y0066363D01*
X0138361Y0066998D01*
X0139534Y0068170D01*
X0140168Y0069702D01*
X0140168Y0077298D01*
X0139534Y0078830D01*
X0138361Y0080002D01*
X0136829Y0080637D01*
X0135171Y0080637D01*
X0133639Y0080002D01*
X0132540Y0078903D02*
X0129460Y0078903D01*
X0130000Y0077705D02*
X0132000Y0077705D01*
X0131831Y0076506D02*
X0130168Y0076506D01*
X0130168Y0075308D02*
X0131831Y0075308D01*
X0131831Y0074109D02*
X0130168Y0074109D01*
X0130168Y0072911D02*
X0131831Y0072911D01*
X0131831Y0071712D02*
X0130168Y0071712D01*
X0130168Y0070514D02*
X0131831Y0070514D01*
X0131992Y0069315D02*
X0130008Y0069315D01*
X0129480Y0068117D02*
X0132520Y0068117D01*
X0133831Y0066918D02*
X0128169Y0066918D01*
X0138169Y0066918D02*
X0143831Y0066918D01*
X0143639Y0066998D02*
X0145171Y0066363D01*
X0146829Y0066363D01*
X0148361Y0066998D01*
X0149534Y0068170D01*
X0150168Y0069702D01*
X0150168Y0077298D01*
X0149534Y0078830D01*
X0148361Y0080002D01*
X0146829Y0080637D01*
X0145171Y0080637D01*
X0143639Y0080002D01*
X0142466Y0078830D01*
X0141831Y0077298D01*
X0141831Y0069702D01*
X0142466Y0068170D01*
X0143639Y0066998D01*
X0142520Y0068117D02*
X0139480Y0068117D01*
X0140008Y0069315D02*
X0141992Y0069315D01*
X0141831Y0070514D02*
X0140168Y0070514D01*
X0140168Y0071712D02*
X0141831Y0071712D01*
X0141831Y0072911D02*
X0140168Y0072911D01*
X0140168Y0074109D02*
X0141831Y0074109D01*
X0141831Y0075308D02*
X0140168Y0075308D01*
X0140168Y0076506D02*
X0141831Y0076506D01*
X0142000Y0077705D02*
X0140000Y0077705D01*
X0139460Y0078903D02*
X0142540Y0078903D01*
X0143879Y0080102D02*
X0138121Y0080102D01*
X0148121Y0080102D02*
X0153879Y0080102D01*
X0153639Y0080002D02*
X0152466Y0078830D01*
X0151831Y0077298D01*
X0151831Y0069702D01*
X0152466Y0068170D01*
X0153639Y0066998D01*
X0155171Y0066363D01*
X0156829Y0066363D01*
X0158361Y0066998D01*
X0159534Y0068170D01*
X0160168Y0069702D01*
X0160168Y0077298D01*
X0159534Y0078830D01*
X0158361Y0080002D01*
X0156829Y0080637D01*
X0155171Y0080637D01*
X0153639Y0080002D01*
X0152540Y0078903D02*
X0149460Y0078903D01*
X0150000Y0077705D02*
X0152000Y0077705D01*
X0151831Y0076506D02*
X0150168Y0076506D01*
X0150168Y0075308D02*
X0151831Y0075308D01*
X0151831Y0074109D02*
X0150168Y0074109D01*
X0150168Y0072911D02*
X0151831Y0072911D01*
X0151831Y0071712D02*
X0150168Y0071712D01*
X0150168Y0070514D02*
X0151831Y0070514D01*
X0151992Y0069315D02*
X0150008Y0069315D01*
X0149480Y0068117D02*
X0152520Y0068117D01*
X0153831Y0066918D02*
X0148169Y0066918D01*
X0158169Y0066918D02*
X0163831Y0066918D01*
X0163639Y0066998D02*
X0165171Y0066363D01*
X0166829Y0066363D01*
X0168361Y0066998D01*
X0169534Y0068170D01*
X0170168Y0069702D01*
X0170168Y0077298D01*
X0169534Y0078830D01*
X0168361Y0080002D01*
X0166829Y0080637D01*
X0165171Y0080637D01*
X0163639Y0080002D01*
X0162466Y0078830D01*
X0161831Y0077298D01*
X0161831Y0069702D01*
X0162466Y0068170D01*
X0163639Y0066998D01*
X0162520Y0068117D02*
X0159480Y0068117D01*
X0160008Y0069315D02*
X0161992Y0069315D01*
X0161831Y0070514D02*
X0160168Y0070514D01*
X0160168Y0071712D02*
X0161831Y0071712D01*
X0161831Y0072911D02*
X0160168Y0072911D01*
X0160168Y0074109D02*
X0161831Y0074109D01*
X0161831Y0075308D02*
X0160168Y0075308D01*
X0160168Y0076506D02*
X0161831Y0076506D01*
X0162000Y0077705D02*
X0160000Y0077705D01*
X0159460Y0078903D02*
X0162540Y0078903D01*
X0163879Y0080102D02*
X0158121Y0080102D01*
X0168121Y0080102D02*
X0173879Y0080102D01*
X0172540Y0078903D02*
X0169460Y0078903D01*
X0170000Y0077705D02*
X0172000Y0077705D01*
X0171831Y0076506D02*
X0170168Y0076506D01*
X0170168Y0075308D02*
X0171831Y0075308D01*
X0171831Y0074109D02*
X0170168Y0074109D01*
X0170168Y0072911D02*
X0171831Y0072911D01*
X0171831Y0071712D02*
X0170168Y0071712D01*
X0170168Y0070514D02*
X0171831Y0070514D01*
X0171992Y0069315D02*
X0170008Y0069315D01*
X0169480Y0068117D02*
X0172520Y0068117D01*
X0173831Y0066918D02*
X0168169Y0066918D01*
X0163751Y0088491D02*
X0187032Y0088491D01*
X0188230Y0089690D02*
X0163981Y0089690D01*
X0163981Y0090888D02*
X0189429Y0090888D01*
X0190627Y0092087D02*
X0163981Y0092087D01*
X0163974Y0093285D02*
X0191826Y0093285D01*
X0193024Y0094484D02*
X0161476Y0094484D01*
X0160277Y0095682D02*
X0194223Y0095682D01*
X0195421Y0096881D02*
X0159079Y0096881D01*
X0157880Y0098079D02*
X0196620Y0098079D01*
X0197818Y0099278D02*
X0156682Y0099278D01*
X0155483Y0100476D02*
X0198200Y0100476D01*
X0198200Y0101675D02*
X0154285Y0101675D01*
X0153086Y0102873D02*
X0198200Y0102873D01*
X0198200Y0104072D02*
X0151888Y0104072D01*
X0150689Y0105270D02*
X0198200Y0105270D01*
X0198200Y0106469D02*
X0149491Y0106469D01*
X0148292Y0107668D02*
X0198200Y0107668D01*
X0198200Y0108866D02*
X0147094Y0108866D01*
X0145895Y0110065D02*
X0198200Y0110065D01*
X0198200Y0111263D02*
X0144697Y0111263D01*
X0143498Y0112462D02*
X0198200Y0112462D01*
X0198081Y0113660D02*
X0142300Y0113660D01*
X0141101Y0114859D02*
X0198019Y0114859D01*
X0198019Y0116057D02*
X0139903Y0116057D01*
X0138704Y0117256D02*
X0198019Y0117256D01*
X0198195Y0118454D02*
X0137506Y0118454D01*
X0128388Y0119653D02*
X0056000Y0119653D01*
X0056000Y0120851D02*
X0127189Y0120851D01*
X0125991Y0122050D02*
X0056000Y0122050D01*
X0056000Y0123248D02*
X0124792Y0123248D01*
X0123594Y0124447D02*
X0056000Y0124447D01*
X0056000Y0125645D02*
X0122395Y0125645D01*
X0121197Y0126844D02*
X0056000Y0126844D01*
X0056000Y0128042D02*
X0119998Y0128042D01*
X0118799Y0129241D02*
X0056000Y0129241D01*
X0056000Y0130439D02*
X0117601Y0130439D01*
X0116402Y0131638D02*
X0056000Y0131638D01*
X0056000Y0132836D02*
X0115204Y0132836D01*
X0106000Y0143623D02*
X0056000Y0143623D01*
X0056000Y0144821D02*
X0106000Y0144821D01*
X0106000Y0146020D02*
X0056000Y0146020D01*
X0056000Y0147218D02*
X0106000Y0147218D01*
X0106000Y0148417D02*
X0056000Y0148417D01*
X0056000Y0149615D02*
X0106000Y0149615D01*
X0106000Y0150814D02*
X0056000Y0150814D01*
X0073500Y0096000D02*
X0079477Y0096000D01*
X0079563Y0095914D01*
X0043879Y0080102D02*
X0038772Y0080102D01*
X0039878Y0078903D02*
X0042540Y0078903D01*
X0042000Y0077705D02*
X0040402Y0077705D01*
X0040568Y0076506D02*
X0041831Y0076506D01*
X0041831Y0075308D02*
X0040568Y0075308D01*
X0040568Y0074109D02*
X0041831Y0074109D01*
X0041831Y0072911D02*
X0040568Y0072911D01*
X0040568Y0071712D02*
X0041831Y0071712D01*
X0041831Y0070514D02*
X0040568Y0070514D01*
X0040408Y0069315D02*
X0041992Y0069315D01*
X0042520Y0068117D02*
X0039892Y0068117D01*
X0038799Y0066918D02*
X0043831Y0066918D01*
X0036384Y0066918D02*
X0035616Y0066918D01*
X0035616Y0065967D02*
X0034930Y0066075D01*
X0034246Y0066298D01*
X0033606Y0066624D01*
X0033024Y0067047D01*
X0032515Y0067555D01*
X0032093Y0068137D01*
X0031766Y0068778D01*
X0031544Y0069462D01*
X0031431Y0070172D01*
X0031431Y0073116D01*
X0035616Y0073116D01*
X0035616Y0065967D01*
X0035616Y0068117D02*
X0036384Y0068117D01*
X0036384Y0069315D02*
X0035616Y0069315D01*
X0035616Y0070514D02*
X0036384Y0070514D01*
X0036384Y0071712D02*
X0035616Y0071712D01*
X0035616Y0072911D02*
X0036384Y0072911D01*
X0031431Y0072911D02*
X0030168Y0072911D01*
X0030168Y0074109D02*
X0031431Y0074109D01*
X0031431Y0075308D02*
X0030168Y0075308D01*
X0030168Y0076506D02*
X0031431Y0076506D01*
X0031598Y0077705D02*
X0030000Y0077705D01*
X0030363Y0078903D02*
X0032122Y0078903D01*
X0031562Y0080102D02*
X0033228Y0080102D01*
X0031431Y0071712D02*
X0030168Y0071712D01*
X0030168Y0070514D02*
X0031431Y0070514D01*
X0031592Y0069315D02*
X0030008Y0069315D01*
X0029480Y0068117D02*
X0032108Y0068117D01*
X0033201Y0066918D02*
X0028800Y0066918D01*
X0028800Y0065720D02*
X0241000Y0065720D01*
X0241000Y0066918D02*
X0218169Y0066918D01*
X0219480Y0068117D02*
X0241000Y0068117D01*
X0241000Y0069315D02*
X0220008Y0069315D01*
X0220168Y0070514D02*
X0241000Y0070514D01*
X0241000Y0071712D02*
X0220168Y0071712D01*
X0220168Y0072911D02*
X0241000Y0072911D01*
X0241000Y0074109D02*
X0220168Y0074109D01*
X0220168Y0075308D02*
X0241000Y0075308D01*
X0241000Y0076506D02*
X0220168Y0076506D01*
X0220000Y0077705D02*
X0241000Y0077705D01*
X0241000Y0078903D02*
X0219460Y0078903D01*
X0218121Y0080102D02*
X0241000Y0080102D01*
X0241000Y0064521D02*
X0028800Y0064521D01*
X0028800Y0063323D02*
X0241000Y0063323D01*
X0241000Y0062124D02*
X0028800Y0062124D01*
X0028800Y0060926D02*
X0241000Y0060926D01*
X0241000Y0059727D02*
X0028800Y0059727D01*
X0028800Y0058529D02*
X0241000Y0058529D01*
X0241000Y0057330D02*
X0028800Y0057330D01*
X0028800Y0056132D02*
X0241000Y0056132D01*
X0241000Y0054933D02*
X0028800Y0054933D01*
X0028800Y0053734D02*
X0241000Y0053734D01*
X0241000Y0052536D02*
X0028800Y0052536D01*
X0028800Y0051337D02*
X0241000Y0051337D01*
X0241000Y0050139D02*
X0028800Y0050139D01*
X0028800Y0048940D02*
X0241000Y0048940D01*
X0241000Y0047742D02*
X0028800Y0047742D01*
X0028800Y0046543D02*
X0054493Y0046543D01*
X0054888Y0046939D02*
X0053863Y0045914D01*
X0053863Y0043480D01*
X0054122Y0043221D01*
X0053957Y0043055D01*
X0053066Y0043946D01*
X0052041Y0044971D01*
X0050591Y0044971D01*
X0049607Y0043987D01*
X0048676Y0043055D01*
X0047744Y0043987D01*
X0044326Y0043987D01*
X0043304Y0042965D01*
X0042283Y0043987D01*
X0040833Y0043987D01*
X0040574Y0043727D01*
X0040314Y0043987D01*
X0037880Y0043987D01*
X0036855Y0042962D01*
X0036855Y0041512D01*
X0037880Y0040487D01*
X0038865Y0040487D01*
X0039808Y0039543D01*
X0039808Y0037575D01*
X0040833Y0036550D01*
X0042283Y0036550D01*
X0043304Y0037572D01*
X0043342Y0037534D01*
X0044326Y0036550D01*
X0047744Y0036550D01*
X0048676Y0037482D01*
X0049607Y0036550D01*
X0051057Y0036550D01*
X0052041Y0037534D01*
X0052387Y0037880D01*
X0052879Y0038372D01*
X0052879Y0037575D01*
X0053904Y0036550D01*
X0057322Y0036550D01*
X0057852Y0037080D01*
X0058381Y0036550D01*
X0059831Y0036550D01*
X0060856Y0037575D01*
X0060856Y0040487D01*
X0061293Y0040487D01*
X0061293Y0037575D01*
X0062318Y0036550D01*
X0063768Y0036550D01*
X0064789Y0037572D01*
X0064827Y0037534D01*
X0065811Y0036550D01*
X0069229Y0036550D01*
X0070251Y0037572D01*
X0071272Y0036550D01*
X0072722Y0036550D01*
X0073747Y0037575D01*
X0073747Y0040487D01*
X0074184Y0040487D01*
X0074184Y0037575D01*
X0075209Y0036550D01*
X0076659Y0036550D01*
X0077684Y0037575D01*
X0077684Y0044930D01*
X0076659Y0045955D01*
X0075209Y0045955D01*
X0073965Y0044712D01*
X0072722Y0045955D01*
X0071272Y0045955D01*
X0071257Y0045940D01*
X0070247Y0044930D01*
X0070247Y0042969D01*
X0070213Y0043003D01*
X0069229Y0043987D01*
X0065811Y0043987D01*
X0064789Y0042965D01*
X0063768Y0043987D01*
X0059365Y0043987D01*
X0058381Y0043003D01*
X0058344Y0042965D01*
X0057363Y0043946D01*
X0057363Y0045914D01*
X0056338Y0046939D01*
X0054888Y0046939D01*
X0056734Y0046543D02*
X0241000Y0046543D01*
X0241000Y0045345D02*
X0233035Y0045345D01*
X0233450Y0044930D02*
X0232425Y0045955D01*
X0230975Y0045955D01*
X0229950Y0044930D01*
X0229950Y0040050D01*
X0227038Y0040050D01*
X0227004Y0040016D01*
X0227004Y0042962D01*
X0225036Y0044930D01*
X0224611Y0045355D01*
X0224011Y0045955D01*
X0222561Y0045955D01*
X0221944Y0045338D01*
X0221536Y0044930D01*
X0220063Y0043457D01*
X0218591Y0044930D01*
X0218165Y0045355D01*
X0217566Y0045955D01*
X0216116Y0045955D01*
X0215499Y0045338D01*
X0215091Y0044930D01*
X0214110Y0043949D01*
X0213434Y0044625D01*
X0213129Y0044930D01*
X0212784Y0045276D01*
X0212104Y0045955D01*
X0208686Y0045955D01*
X0208026Y0045295D01*
X0207661Y0044930D01*
X0207661Y0044930D01*
X0206677Y0043946D01*
X0206677Y0042496D01*
X0207428Y0041745D01*
X0207356Y0041673D01*
X0206677Y0040993D01*
X0206677Y0038559D01*
X0207661Y0037575D01*
X0208686Y0036550D01*
X0212104Y0036550D01*
X0213126Y0037572D01*
X0214147Y0036550D01*
X0215597Y0036550D01*
X0216622Y0037575D01*
X0216622Y0039503D01*
X0217059Y0039503D01*
X0217059Y0037575D01*
X0218084Y0036550D01*
X0219534Y0036550D01*
X0220063Y0037080D01*
X0220593Y0036550D01*
X0222043Y0036550D01*
X0223068Y0037575D01*
X0223068Y0039503D01*
X0223505Y0039503D01*
X0223505Y0037575D01*
X0224530Y0036550D01*
X0225979Y0036550D01*
X0226509Y0037080D01*
X0227038Y0036550D01*
X0232425Y0036550D01*
X0233450Y0037575D01*
X0233450Y0039025D01*
X0233450Y0044930D01*
X0233450Y0044146D02*
X0241000Y0044146D01*
X0241000Y0042948D02*
X0233450Y0042948D01*
X0233450Y0041749D02*
X0241000Y0041749D01*
X0241000Y0040551D02*
X0233450Y0040551D01*
X0233450Y0039352D02*
X0241000Y0039352D01*
X0241000Y0038154D02*
X0233450Y0038154D01*
X0232830Y0036955D02*
X0241000Y0036955D01*
X0241000Y0035757D02*
X0088606Y0035757D01*
X0088606Y0035607D02*
X0088606Y0036591D01*
X0089591Y0037575D01*
X0090575Y0038559D01*
X0090575Y0040487D01*
X0091503Y0040487D01*
X0092446Y0039543D01*
X0092446Y0037575D01*
X0093471Y0036550D01*
X0094921Y0036550D01*
X0095943Y0037572D01*
X0096964Y0036550D01*
X0100382Y0036550D01*
X0101314Y0037482D01*
X0102245Y0036550D01*
X0103695Y0036550D01*
X0104679Y0037534D01*
X0104679Y0037534D01*
X0105025Y0037880D01*
X0105517Y0038372D01*
X0105517Y0037575D01*
X0106542Y0036550D01*
X0107992Y0036550D01*
X0108976Y0037534D01*
X0108976Y0037534D01*
X0109322Y0037880D01*
X0109994Y0038552D01*
X0109994Y0037575D01*
X0111019Y0036550D01*
X0115422Y0036550D01*
X0116911Y0038039D01*
X0116935Y0038064D01*
X0117424Y0037575D01*
X0118449Y0036550D01*
X0122851Y0036550D01*
X0123877Y0037575D01*
X0123877Y0041977D01*
X0123877Y0043480D01*
X0123877Y0044930D01*
X0122851Y0045955D01*
X0118449Y0045955D01*
X0117770Y0045276D01*
X0117424Y0044930D01*
X0117424Y0044930D01*
X0117119Y0044625D01*
X0116440Y0043946D01*
X0116440Y0042969D01*
X0115422Y0043987D01*
X0112004Y0043987D01*
X0111019Y0043003D01*
X0110982Y0042965D01*
X0110001Y0043946D01*
X0108976Y0044971D01*
X0107527Y0044971D01*
X0106542Y0043987D01*
X0106103Y0043547D01*
X0105704Y0043946D01*
X0104679Y0044971D01*
X0103230Y0044971D01*
X0102245Y0043987D01*
X0101314Y0043055D01*
X0100382Y0043987D01*
X0096964Y0043987D01*
X0095980Y0043003D01*
X0095943Y0042965D01*
X0094921Y0043987D01*
X0093471Y0043987D01*
X0093212Y0043727D01*
X0092953Y0043987D01*
X0090519Y0043987D01*
X0090034Y0043502D01*
X0089550Y0043987D01*
X0088100Y0043987D01*
X0087075Y0042962D01*
X0087075Y0040050D01*
X0086638Y0040050D01*
X0086638Y0042962D01*
X0085613Y0043987D01*
X0084163Y0043987D01*
X0083138Y0042962D01*
X0083138Y0036591D01*
X0083798Y0035931D01*
X0084122Y0035607D01*
X0084122Y0035607D01*
X0084487Y0035242D01*
X0085147Y0034582D01*
X0087581Y0034582D01*
X0088606Y0035607D01*
X0088971Y0036955D02*
X0093066Y0036955D01*
X0092446Y0038154D02*
X0090169Y0038154D01*
X0090575Y0039352D02*
X0092446Y0039352D01*
X0095326Y0036955D02*
X0096559Y0036955D01*
X0100788Y0036955D02*
X0101840Y0036955D01*
X0104100Y0036955D02*
X0106137Y0036955D01*
X0105517Y0038154D02*
X0105299Y0038154D01*
X0108397Y0036955D02*
X0110614Y0036955D01*
X0109994Y0038154D02*
X0109596Y0038154D01*
X0110001Y0043946D02*
X0110001Y0043946D01*
X0109801Y0044146D02*
X0116641Y0044146D01*
X0117839Y0045345D02*
X0077269Y0045345D01*
X0077684Y0044146D02*
X0102405Y0044146D01*
X0105504Y0044146D02*
X0106702Y0044146D01*
X0105704Y0043946D02*
X0105704Y0043946D01*
X0115827Y0036955D02*
X0118044Y0036955D01*
X0117465Y0035455D02*
X0116440Y0034430D01*
X0116440Y0032980D01*
X0117191Y0032229D01*
X0116440Y0031477D01*
X0116440Y0028059D01*
X0117424Y0027075D01*
X0118449Y0026050D01*
X0121867Y0026050D01*
X0122889Y0027072D01*
X0123910Y0026050D01*
X0129297Y0026050D01*
X0130322Y0027075D01*
X0130322Y0028525D01*
X0129297Y0029550D01*
X0128354Y0029550D01*
X0128354Y0029987D01*
X0129297Y0029987D01*
X0130322Y0031012D01*
X0130322Y0031688D01*
X0133964Y0026226D01*
X0135385Y0025942D01*
X0136300Y0026552D01*
X0136801Y0026050D01*
X0142188Y0026050D01*
X0142717Y0026580D01*
X0143247Y0026050D01*
X0148633Y0026050D01*
X0149659Y0027075D01*
X0149659Y0028525D01*
X0148633Y0029550D01*
X0147690Y0029550D01*
X0147690Y0029987D01*
X0148633Y0029987D01*
X0149659Y0031012D01*
X0149659Y0031688D01*
X0153300Y0026226D01*
X0154722Y0025942D01*
X0155636Y0026552D01*
X0156138Y0026050D01*
X0161524Y0026050D01*
X0162546Y0027072D01*
X0163568Y0026050D01*
X0166986Y0026050D01*
X0167970Y0027034D01*
X0168995Y0028059D01*
X0168995Y0033446D01*
X0168335Y0034106D01*
X0168011Y0034430D01*
X0167646Y0034795D01*
X0166986Y0035455D01*
X0163568Y0035455D01*
X0162888Y0034776D01*
X0162543Y0034430D01*
X0162398Y0034285D01*
X0161562Y0033449D01*
X0159556Y0035455D01*
X0158106Y0035455D01*
X0158091Y0035440D01*
X0157081Y0034430D01*
X0157081Y0029550D01*
X0156138Y0029550D01*
X0155630Y0029042D01*
X0151471Y0035279D01*
X0150050Y0035563D01*
X0148843Y0034759D01*
X0148596Y0033524D01*
X0146665Y0035455D01*
X0145215Y0035455D01*
X0145200Y0035440D01*
X0144190Y0034430D01*
X0144190Y0029550D01*
X0143247Y0029550D01*
X0142717Y0029020D01*
X0140767Y0030971D01*
X0142188Y0030971D01*
X0143213Y0031996D01*
X0143213Y0033446D01*
X0142229Y0034430D01*
X0141883Y0034776D01*
X0141204Y0035455D01*
X0137786Y0035455D01*
X0137126Y0034795D01*
X0136761Y0034430D01*
X0136436Y0034106D01*
X0135776Y0033446D01*
X0135776Y0031012D01*
X0136801Y0029987D01*
X0137238Y0029550D01*
X0136801Y0029550D01*
X0136293Y0029042D01*
X0132135Y0035279D01*
X0130713Y0035563D01*
X0129507Y0034759D01*
X0129260Y0033524D01*
X0127329Y0035455D01*
X0125879Y0035455D01*
X0125864Y0035440D01*
X0124854Y0034430D01*
X0124854Y0029550D01*
X0123910Y0029550D01*
X0123873Y0029513D01*
X0123617Y0029768D01*
X0123877Y0030028D01*
X0123877Y0030339D01*
X0124016Y0030618D01*
X0123877Y0031036D01*
X0123877Y0034430D01*
X0122851Y0035455D01*
X0121402Y0035455D01*
X0117465Y0035455D01*
X0116568Y0034558D02*
X0028800Y0034558D01*
X0028800Y0033360D02*
X0116440Y0033360D01*
X0117124Y0032161D02*
X0028800Y0032161D01*
X0028800Y0030963D02*
X0116440Y0030963D01*
X0116440Y0029764D02*
X0028800Y0029764D01*
X0028800Y0028566D02*
X0116440Y0028566D01*
X0117132Y0027367D02*
X0028800Y0027367D01*
X0028800Y0026169D02*
X0118330Y0026169D01*
X0121986Y0026169D02*
X0123792Y0026169D01*
X0123621Y0029764D02*
X0124854Y0029764D01*
X0124854Y0030963D02*
X0123901Y0030963D01*
X0123877Y0032161D02*
X0124854Y0032161D01*
X0124854Y0033360D02*
X0123877Y0033360D01*
X0123748Y0034558D02*
X0124982Y0034558D01*
X0123257Y0036955D02*
X0129951Y0036955D01*
X0130356Y0036550D02*
X0135742Y0036550D01*
X0136768Y0037575D01*
X0136768Y0039025D01*
X0135742Y0040050D01*
X0134322Y0041471D01*
X0135742Y0041471D01*
X0135776Y0041505D01*
X0135776Y0040528D01*
X0136436Y0039868D01*
X0136761Y0039543D01*
X0137126Y0039178D01*
X0137786Y0038518D01*
X0139713Y0038518D01*
X0139713Y0037575D01*
X0140738Y0036550D01*
X0142188Y0036550D01*
X0142717Y0037080D01*
X0143247Y0036550D01*
X0144697Y0036550D01*
X0146159Y0038012D01*
X0146159Y0037575D01*
X0147184Y0036550D01*
X0148633Y0036550D01*
X0149163Y0037080D01*
X0149692Y0036550D01*
X0151142Y0036550D01*
X0152167Y0037575D01*
X0152167Y0039503D01*
X0152604Y0039503D01*
X0152604Y0037575D01*
X0153629Y0036550D01*
X0155079Y0036550D01*
X0156104Y0037575D01*
X0156104Y0044930D01*
X0155079Y0045955D01*
X0153629Y0045955D01*
X0152604Y0044930D01*
X0152604Y0043003D01*
X0152167Y0043003D01*
X0152167Y0044930D01*
X0151142Y0045955D01*
X0149692Y0045955D01*
X0149163Y0045425D01*
X0148633Y0045955D01*
X0144231Y0045955D01*
X0143552Y0045276D01*
X0143210Y0044933D01*
X0142188Y0045955D01*
X0137786Y0045955D01*
X0137106Y0045276D01*
X0136761Y0044930D01*
X0136456Y0044625D01*
X0136272Y0044441D01*
X0135783Y0044930D01*
X0135438Y0045276D01*
X0134758Y0045955D01*
X0131340Y0045955D01*
X0130680Y0045295D01*
X0130315Y0044930D01*
X0130315Y0044930D01*
X0129991Y0044606D01*
X0129331Y0043946D01*
X0129331Y0041512D01*
X0130356Y0040487D01*
X0130793Y0040050D01*
X0130356Y0040050D01*
X0129331Y0039025D01*
X0129331Y0037575D01*
X0130356Y0036550D01*
X0129331Y0038154D02*
X0123877Y0038154D01*
X0123877Y0039352D02*
X0129658Y0039352D01*
X0130356Y0040487D02*
X0130356Y0040487D01*
X0130292Y0040551D02*
X0123877Y0040551D01*
X0123877Y0041749D02*
X0129331Y0041749D01*
X0129331Y0042948D02*
X0123877Y0042948D01*
X0123877Y0044146D02*
X0129532Y0044146D01*
X0130730Y0045345D02*
X0123462Y0045345D01*
X0135368Y0045345D02*
X0137176Y0045345D01*
X0136761Y0044930D02*
X0136761Y0044930D01*
X0135783Y0044930D02*
X0135783Y0044930D01*
X0142798Y0045345D02*
X0143621Y0045345D01*
X0151752Y0045345D02*
X0153019Y0045345D01*
X0152604Y0044146D02*
X0152167Y0044146D01*
X0155689Y0045345D02*
X0175849Y0045345D01*
X0175799Y0045295D02*
X0175434Y0044930D01*
X0174449Y0043946D01*
X0174449Y0042496D01*
X0175201Y0041745D01*
X0175129Y0041673D01*
X0174449Y0040993D01*
X0174449Y0038559D01*
X0175434Y0037575D01*
X0176459Y0036550D01*
X0179877Y0036550D01*
X0180898Y0037572D01*
X0181920Y0036550D01*
X0183370Y0036550D01*
X0184832Y0038012D01*
X0184832Y0037575D01*
X0185857Y0036550D01*
X0187306Y0036550D01*
X0187808Y0037052D01*
X0187975Y0036940D01*
X0188365Y0036550D01*
X0188560Y0036550D01*
X0188723Y0036442D01*
X0189264Y0036550D01*
X0189815Y0036550D01*
X0189953Y0036688D01*
X0190144Y0036726D01*
X0190450Y0037185D01*
X0190840Y0037575D01*
X0190840Y0037770D01*
X0191277Y0038425D01*
X0191277Y0037575D01*
X0192302Y0036550D01*
X0193752Y0036550D01*
X0194773Y0037572D01*
X0195795Y0036550D01*
X0199213Y0036550D01*
X0200238Y0037575D01*
X0201223Y0038559D01*
X0201223Y0043946D01*
X0200543Y0044625D01*
X0200238Y0044930D01*
X0199893Y0045276D01*
X0199213Y0045955D01*
X0195795Y0045955D01*
X0195135Y0045295D01*
X0194773Y0044933D01*
X0194639Y0045068D01*
X0194601Y0045259D01*
X0194142Y0045565D01*
X0193752Y0045955D01*
X0193557Y0045955D01*
X0193395Y0046063D01*
X0192854Y0045955D01*
X0192302Y0045955D01*
X0192164Y0045817D01*
X0191973Y0045779D01*
X0191667Y0045320D01*
X0191277Y0044930D01*
X0191277Y0044735D01*
X0190840Y0044080D01*
X0190840Y0044930D01*
X0189815Y0045955D01*
X0188365Y0045955D01*
X0187836Y0045425D01*
X0187306Y0045955D01*
X0182904Y0045955D01*
X0182225Y0045276D01*
X0181879Y0044930D01*
X0181879Y0044930D01*
X0181574Y0044625D01*
X0181390Y0044441D01*
X0181207Y0044625D01*
X0180902Y0044930D01*
X0180556Y0045276D01*
X0179877Y0045955D01*
X0176459Y0045955D01*
X0176459Y0045955D01*
X0175799Y0045295D01*
X0175434Y0044930D02*
X0175434Y0044930D01*
X0174650Y0044146D02*
X0156104Y0044146D01*
X0156104Y0042948D02*
X0162529Y0042948D01*
X0162583Y0043003D02*
X0161558Y0041977D01*
X0161558Y0040528D01*
X0162583Y0039503D01*
X0167970Y0039503D01*
X0168995Y0040528D01*
X0168995Y0041977D01*
X0167970Y0043003D01*
X0162583Y0043003D01*
X0161558Y0041749D02*
X0156104Y0041749D01*
X0156104Y0040551D02*
X0161558Y0040551D01*
X0156104Y0039352D02*
X0174449Y0039352D01*
X0174449Y0040551D02*
X0168995Y0040551D01*
X0168995Y0041749D02*
X0175196Y0041749D01*
X0174449Y0042948D02*
X0168025Y0042948D01*
X0174855Y0038154D02*
X0156104Y0038154D01*
X0155484Y0036955D02*
X0176053Y0036955D01*
X0180282Y0036955D02*
X0181515Y0036955D01*
X0183775Y0036955D02*
X0185451Y0036955D01*
X0187712Y0036955D02*
X0187952Y0036955D01*
X0189350Y0035455D02*
X0188690Y0034795D01*
X0188324Y0034430D01*
X0187340Y0033446D01*
X0187340Y0031996D01*
X0188092Y0031245D01*
X0188020Y0031173D01*
X0187340Y0030493D01*
X0187340Y0028059D01*
X0188324Y0027075D01*
X0189350Y0026050D01*
X0192768Y0026050D01*
X0193789Y0027072D01*
X0194811Y0026050D01*
X0200197Y0026050D01*
X0201219Y0027072D01*
X0201256Y0027034D01*
X0202241Y0026050D01*
X0205659Y0026050D01*
X0206684Y0027075D01*
X0207668Y0028059D01*
X0207668Y0031005D01*
X0207702Y0030971D01*
X0208645Y0030028D01*
X0208645Y0027075D01*
X0209670Y0026050D01*
X0211120Y0026050D01*
X0212145Y0027075D01*
X0212145Y0030028D01*
X0213122Y0031005D01*
X0213122Y0027075D01*
X0214147Y0026050D01*
X0215597Y0026050D01*
X0216622Y0027075D01*
X0216622Y0029003D01*
X0217059Y0029003D01*
X0217059Y0027075D01*
X0218084Y0026050D01*
X0219534Y0026050D01*
X0220063Y0026580D01*
X0220593Y0026050D01*
X0225979Y0026050D01*
X0227004Y0027075D01*
X0227004Y0031989D01*
X0227038Y0031955D01*
X0228459Y0031955D01*
X0227982Y0031477D01*
X0227982Y0030028D01*
X0229007Y0029003D01*
X0229950Y0029003D01*
X0229950Y0027075D01*
X0230975Y0026050D01*
X0232425Y0026050D01*
X0233450Y0027075D01*
X0233450Y0034430D01*
X0232425Y0035455D01*
X0227038Y0035455D01*
X0226509Y0034925D01*
X0225979Y0035455D01*
X0224530Y0035455D01*
X0223505Y0034430D01*
X0223505Y0029550D01*
X0220593Y0029550D01*
X0220559Y0029516D01*
X0220559Y0032462D01*
X0218591Y0034430D01*
X0218165Y0034855D01*
X0217566Y0035455D01*
X0216116Y0035455D01*
X0215499Y0034838D01*
X0215091Y0034430D01*
X0214113Y0033453D01*
X0214113Y0034430D01*
X0213088Y0035455D01*
X0211639Y0035455D01*
X0210614Y0034430D01*
X0210614Y0033446D01*
X0210395Y0033227D01*
X0210177Y0033446D01*
X0210177Y0034430D01*
X0209152Y0035455D01*
X0207702Y0035455D01*
X0206680Y0034433D01*
X0206338Y0034776D01*
X0205659Y0035455D01*
X0202241Y0035455D01*
X0201503Y0034717D01*
X0201219Y0034433D01*
X0200197Y0035455D01*
X0198748Y0035455D01*
X0197723Y0034430D01*
X0197723Y0029550D01*
X0194811Y0029550D01*
X0194773Y0029513D01*
X0194026Y0030260D01*
X0194777Y0031012D01*
X0194777Y0033446D01*
X0194098Y0034125D01*
X0193793Y0034430D01*
X0193447Y0034776D01*
X0192768Y0035455D01*
X0189350Y0035455D01*
X0189350Y0035455D01*
X0188453Y0034558D02*
X0167882Y0034558D01*
X0168011Y0034430D02*
X0168011Y0034430D01*
X0168995Y0033360D02*
X0187340Y0033360D01*
X0187340Y0032161D02*
X0181202Y0032161D01*
X0180861Y0032503D02*
X0175474Y0032503D01*
X0174449Y0031477D01*
X0174449Y0030028D01*
X0175474Y0029003D01*
X0180861Y0029003D01*
X0181886Y0030028D01*
X0181886Y0031477D01*
X0180861Y0032503D01*
X0181886Y0030963D02*
X0187810Y0030963D01*
X0187340Y0029764D02*
X0181623Y0029764D01*
X0187340Y0028566D02*
X0168995Y0028566D01*
X0168995Y0029764D02*
X0174713Y0029764D01*
X0174449Y0030963D02*
X0168995Y0030963D01*
X0168995Y0032161D02*
X0175133Y0032161D01*
X0168303Y0027367D02*
X0188032Y0027367D01*
X0189231Y0026169D02*
X0167104Y0026169D01*
X0163449Y0026169D02*
X0161643Y0026169D01*
X0156019Y0026169D02*
X0155062Y0026169D01*
X0153587Y0026169D02*
X0148752Y0026169D01*
X0149659Y0027367D02*
X0152539Y0027367D01*
X0151740Y0028566D02*
X0149618Y0028566D01*
X0150941Y0029764D02*
X0147690Y0029764D01*
X0149609Y0030963D02*
X0150142Y0030963D01*
X0152751Y0033360D02*
X0157081Y0033360D01*
X0157081Y0032161D02*
X0153550Y0032161D01*
X0154349Y0030963D02*
X0157081Y0030963D01*
X0157081Y0029764D02*
X0155148Y0029764D01*
X0157210Y0034558D02*
X0151952Y0034558D01*
X0151548Y0036955D02*
X0153224Y0036955D01*
X0152604Y0038154D02*
X0152167Y0038154D01*
X0152167Y0039352D02*
X0152604Y0039352D01*
X0149287Y0036955D02*
X0149039Y0036955D01*
X0146778Y0036955D02*
X0145102Y0036955D01*
X0142842Y0036955D02*
X0142593Y0036955D01*
X0140333Y0036955D02*
X0136148Y0036955D01*
X0136768Y0038154D02*
X0139713Y0038154D01*
X0136952Y0039352D02*
X0136440Y0039352D01*
X0136761Y0039543D02*
X0136761Y0039543D01*
X0135742Y0040050D02*
X0135742Y0040050D01*
X0135776Y0040551D02*
X0135242Y0040551D01*
X0136889Y0034558D02*
X0132615Y0034558D01*
X0133414Y0033360D02*
X0135776Y0033360D01*
X0135776Y0032161D02*
X0134213Y0032161D01*
X0135012Y0030963D02*
X0135825Y0030963D01*
X0135811Y0029764D02*
X0137024Y0029764D01*
X0133203Y0027367D02*
X0130322Y0027367D01*
X0130281Y0028566D02*
X0132404Y0028566D01*
X0131605Y0029764D02*
X0128354Y0029764D01*
X0130273Y0030963D02*
X0130806Y0030963D01*
X0129467Y0034558D02*
X0128225Y0034558D01*
X0136761Y0034430D02*
X0136761Y0034430D01*
X0140775Y0030963D02*
X0144190Y0030963D01*
X0144190Y0032161D02*
X0143213Y0032161D01*
X0143213Y0033360D02*
X0144190Y0033360D01*
X0144319Y0034558D02*
X0142100Y0034558D01*
X0142229Y0034430D02*
X0142229Y0034430D01*
X0141974Y0029764D02*
X0144190Y0029764D01*
X0143128Y0026169D02*
X0142307Y0026169D01*
X0136683Y0026169D02*
X0135725Y0026169D01*
X0134251Y0026169D02*
X0129416Y0026169D01*
X0126829Y0020637D02*
X0125171Y0020637D01*
X0123639Y0020002D01*
X0122466Y0018830D01*
X0121831Y0017298D01*
X0121831Y0009702D01*
X0122466Y0008170D01*
X0123639Y0006998D01*
X0125171Y0006363D01*
X0126829Y0006363D01*
X0128361Y0006998D01*
X0129534Y0008170D01*
X0130168Y0009702D01*
X0130168Y0017298D01*
X0129534Y0018830D01*
X0128361Y0020002D01*
X0126829Y0020637D01*
X0127942Y0020176D02*
X0134058Y0020176D01*
X0133639Y0020002D02*
X0132466Y0018830D01*
X0131831Y0017298D01*
X0131831Y0009702D01*
X0132466Y0008170D01*
X0133639Y0006998D01*
X0135171Y0006363D01*
X0136829Y0006363D01*
X0138361Y0006998D01*
X0139534Y0008170D01*
X0140168Y0009702D01*
X0140168Y0017298D01*
X0139534Y0018830D01*
X0138361Y0020002D01*
X0136829Y0020637D01*
X0135171Y0020637D01*
X0133639Y0020002D01*
X0132614Y0018978D02*
X0129386Y0018978D01*
X0129969Y0017779D02*
X0132031Y0017779D01*
X0131831Y0016581D02*
X0130168Y0016581D01*
X0130168Y0015382D02*
X0131831Y0015382D01*
X0131831Y0014184D02*
X0130168Y0014184D01*
X0130168Y0012985D02*
X0131831Y0012985D01*
X0131831Y0011787D02*
X0130168Y0011787D01*
X0130168Y0010588D02*
X0131831Y0010588D01*
X0131961Y0009390D02*
X0130039Y0009390D01*
X0129542Y0008191D02*
X0132457Y0008191D01*
X0133651Y0006993D02*
X0128349Y0006993D01*
X0123651Y0006993D02*
X0118349Y0006993D01*
X0118361Y0006998D02*
X0119534Y0008170D01*
X0120168Y0009702D01*
X0120168Y0017298D01*
X0119534Y0018830D01*
X0118361Y0020002D01*
X0116829Y0020637D01*
X0115171Y0020637D01*
X0113639Y0020002D01*
X0112466Y0018830D01*
X0111831Y0017298D01*
X0111831Y0009702D01*
X0112466Y0008170D01*
X0113639Y0006998D01*
X0115171Y0006363D01*
X0116829Y0006363D01*
X0118361Y0006998D01*
X0119542Y0008191D02*
X0122457Y0008191D01*
X0121961Y0009390D02*
X0120039Y0009390D01*
X0120168Y0010588D02*
X0121831Y0010588D01*
X0121831Y0011787D02*
X0120168Y0011787D01*
X0120168Y0012985D02*
X0121831Y0012985D01*
X0121831Y0014184D02*
X0120168Y0014184D01*
X0120168Y0015382D02*
X0121831Y0015382D01*
X0121831Y0016581D02*
X0120168Y0016581D01*
X0119969Y0017779D02*
X0122031Y0017779D01*
X0122614Y0018978D02*
X0119386Y0018978D01*
X0117942Y0020176D02*
X0124058Y0020176D01*
X0114058Y0020176D02*
X0107942Y0020176D01*
X0108361Y0020002D02*
X0106829Y0020637D01*
X0105171Y0020637D01*
X0103639Y0020002D01*
X0102466Y0018830D01*
X0101831Y0017298D01*
X0101831Y0009702D01*
X0102466Y0008170D01*
X0103639Y0006998D01*
X0105171Y0006363D01*
X0106829Y0006363D01*
X0108361Y0006998D01*
X0109534Y0008170D01*
X0110168Y0009702D01*
X0110168Y0017298D01*
X0109534Y0018830D01*
X0108361Y0020002D01*
X0109386Y0018978D02*
X0112614Y0018978D01*
X0112031Y0017779D02*
X0109969Y0017779D01*
X0110168Y0016581D02*
X0111831Y0016581D01*
X0111831Y0015382D02*
X0110168Y0015382D01*
X0110168Y0014184D02*
X0111831Y0014184D01*
X0111831Y0012985D02*
X0110168Y0012985D01*
X0110168Y0011787D02*
X0111831Y0011787D01*
X0111831Y0010588D02*
X0110168Y0010588D01*
X0110039Y0009390D02*
X0111961Y0009390D01*
X0112457Y0008191D02*
X0109542Y0008191D01*
X0108349Y0006993D02*
X0113651Y0006993D01*
X0103651Y0006993D02*
X0098349Y0006993D01*
X0098361Y0006998D02*
X0099534Y0008170D01*
X0100168Y0009702D01*
X0100168Y0017298D01*
X0099534Y0018830D01*
X0098361Y0020002D01*
X0096829Y0020637D01*
X0095171Y0020637D01*
X0093639Y0020002D01*
X0092466Y0018830D01*
X0091831Y0017298D01*
X0091831Y0009702D01*
X0092466Y0008170D01*
X0093639Y0006998D01*
X0095171Y0006363D01*
X0096829Y0006363D01*
X0098361Y0006998D01*
X0099542Y0008191D02*
X0102457Y0008191D01*
X0101961Y0009390D02*
X0100039Y0009390D01*
X0100168Y0010588D02*
X0101831Y0010588D01*
X0101831Y0011787D02*
X0100168Y0011787D01*
X0100168Y0012985D02*
X0101831Y0012985D01*
X0101831Y0014184D02*
X0100168Y0014184D01*
X0100168Y0015382D02*
X0101831Y0015382D01*
X0101831Y0016581D02*
X0100168Y0016581D01*
X0099969Y0017779D02*
X0102031Y0017779D01*
X0102614Y0018978D02*
X0099386Y0018978D01*
X0097942Y0020176D02*
X0104058Y0020176D01*
X0094058Y0020176D02*
X0087942Y0020176D01*
X0088361Y0020002D02*
X0086829Y0020637D01*
X0085171Y0020637D01*
X0083639Y0020002D01*
X0082466Y0018830D01*
X0081831Y0017298D01*
X0081831Y0009702D01*
X0082466Y0008170D01*
X0083639Y0006998D01*
X0085171Y0006363D01*
X0086829Y0006363D01*
X0088361Y0006998D01*
X0089534Y0008170D01*
X0090168Y0009702D01*
X0090168Y0017298D01*
X0089534Y0018830D01*
X0088361Y0020002D01*
X0089386Y0018978D02*
X0092614Y0018978D01*
X0092031Y0017779D02*
X0089969Y0017779D01*
X0090168Y0016581D02*
X0091831Y0016581D01*
X0091831Y0015382D02*
X0090168Y0015382D01*
X0090168Y0014184D02*
X0091831Y0014184D01*
X0091831Y0012985D02*
X0090168Y0012985D01*
X0090168Y0011787D02*
X0091831Y0011787D01*
X0091831Y0010588D02*
X0090168Y0010588D01*
X0090039Y0009390D02*
X0091961Y0009390D01*
X0092457Y0008191D02*
X0089542Y0008191D01*
X0088349Y0006993D02*
X0093651Y0006993D01*
X0083651Y0006993D02*
X0078349Y0006993D01*
X0078361Y0006998D02*
X0079534Y0008170D01*
X0080168Y0009702D01*
X0080168Y0017298D01*
X0079534Y0018830D01*
X0078361Y0020002D01*
X0076829Y0020637D01*
X0075171Y0020637D01*
X0073639Y0020002D01*
X0072466Y0018830D01*
X0071831Y0017298D01*
X0071831Y0009702D01*
X0072466Y0008170D01*
X0073639Y0006998D01*
X0075171Y0006363D01*
X0076829Y0006363D01*
X0078361Y0006998D01*
X0079542Y0008191D02*
X0082457Y0008191D01*
X0081961Y0009390D02*
X0080039Y0009390D01*
X0080168Y0010588D02*
X0081831Y0010588D01*
X0081831Y0011787D02*
X0080168Y0011787D01*
X0080168Y0012985D02*
X0081831Y0012985D01*
X0081831Y0014184D02*
X0080168Y0014184D01*
X0080168Y0015382D02*
X0081831Y0015382D01*
X0081831Y0016581D02*
X0080168Y0016581D01*
X0079969Y0017779D02*
X0082031Y0017779D01*
X0082614Y0018978D02*
X0079386Y0018978D01*
X0077942Y0020176D02*
X0084058Y0020176D01*
X0074058Y0020176D02*
X0067942Y0020176D01*
X0068361Y0020002D02*
X0066829Y0020637D01*
X0065171Y0020637D01*
X0063639Y0020002D01*
X0062466Y0018830D01*
X0061831Y0017298D01*
X0061831Y0009702D01*
X0062466Y0008170D01*
X0063639Y0006998D01*
X0065171Y0006363D01*
X0066829Y0006363D01*
X0068361Y0006998D01*
X0069534Y0008170D01*
X0070168Y0009702D01*
X0070168Y0017298D01*
X0069534Y0018830D01*
X0068361Y0020002D01*
X0069386Y0018978D02*
X0072614Y0018978D01*
X0072031Y0017779D02*
X0069969Y0017779D01*
X0070168Y0016581D02*
X0071831Y0016581D01*
X0071831Y0015382D02*
X0070168Y0015382D01*
X0070168Y0014184D02*
X0071831Y0014184D01*
X0071831Y0012985D02*
X0070168Y0012985D01*
X0070168Y0011787D02*
X0071831Y0011787D01*
X0071831Y0010588D02*
X0070168Y0010588D01*
X0070039Y0009390D02*
X0071961Y0009390D01*
X0072457Y0008191D02*
X0069542Y0008191D01*
X0068349Y0006993D02*
X0073651Y0006993D01*
X0063651Y0006993D02*
X0058349Y0006993D01*
X0058361Y0006998D02*
X0059534Y0008170D01*
X0060168Y0009702D01*
X0060168Y0017298D01*
X0059534Y0018830D01*
X0058361Y0020002D01*
X0056829Y0020637D01*
X0055171Y0020637D01*
X0053639Y0020002D01*
X0052466Y0018830D01*
X0051831Y0017298D01*
X0051831Y0009702D01*
X0052466Y0008170D01*
X0053639Y0006998D01*
X0055171Y0006363D01*
X0056829Y0006363D01*
X0058361Y0006998D01*
X0059542Y0008191D02*
X0062457Y0008191D01*
X0061961Y0009390D02*
X0060039Y0009390D01*
X0060168Y0010588D02*
X0061831Y0010588D01*
X0061831Y0011787D02*
X0060168Y0011787D01*
X0060168Y0012985D02*
X0061831Y0012985D01*
X0061831Y0014184D02*
X0060168Y0014184D01*
X0060168Y0015382D02*
X0061831Y0015382D01*
X0061831Y0016581D02*
X0060168Y0016581D01*
X0059969Y0017779D02*
X0062031Y0017779D01*
X0062614Y0018978D02*
X0059386Y0018978D01*
X0057942Y0020176D02*
X0064058Y0020176D01*
X0054058Y0020176D02*
X0047942Y0020176D01*
X0048361Y0020002D02*
X0046829Y0020637D01*
X0045171Y0020637D01*
X0043639Y0020002D01*
X0042466Y0018830D01*
X0041831Y0017298D01*
X0041831Y0009702D01*
X0042466Y0008170D01*
X0043639Y0006998D01*
X0045171Y0006363D01*
X0046829Y0006363D01*
X0048361Y0006998D01*
X0049534Y0008170D01*
X0050168Y0009702D01*
X0050168Y0017298D01*
X0049534Y0018830D01*
X0048361Y0020002D01*
X0049386Y0018978D02*
X0052614Y0018978D01*
X0052031Y0017779D02*
X0049969Y0017779D01*
X0050168Y0016581D02*
X0051831Y0016581D01*
X0051831Y0015382D02*
X0050168Y0015382D01*
X0050168Y0014184D02*
X0051831Y0014184D01*
X0051831Y0012985D02*
X0050168Y0012985D01*
X0050168Y0011787D02*
X0051831Y0011787D01*
X0051831Y0010588D02*
X0050168Y0010588D01*
X0050039Y0009390D02*
X0051961Y0009390D01*
X0052457Y0008191D02*
X0049542Y0008191D01*
X0048349Y0006993D02*
X0053651Y0006993D01*
X0043651Y0006993D02*
X0038901Y0006993D01*
X0039935Y0008191D02*
X0042457Y0008191D01*
X0041961Y0009390D02*
X0040433Y0009390D01*
X0040568Y0010588D02*
X0041831Y0010588D01*
X0041831Y0011787D02*
X0040568Y0011787D01*
X0040568Y0012985D02*
X0041831Y0012985D01*
X0041831Y0014184D02*
X0040568Y0014184D01*
X0040568Y0013884D02*
X0040568Y0016828D01*
X0040456Y0017538D01*
X0040234Y0018222D01*
X0039907Y0018863D01*
X0039485Y0019445D01*
X0038976Y0019953D01*
X0038394Y0020376D01*
X0037754Y0020702D01*
X0037070Y0020925D01*
X0036384Y0021033D01*
X0036384Y0013884D01*
X0040568Y0013884D01*
X0040568Y0015382D02*
X0041831Y0015382D01*
X0041831Y0016581D02*
X0040568Y0016581D01*
X0040378Y0017779D02*
X0042031Y0017779D01*
X0042614Y0018978D02*
X0039824Y0018978D01*
X0038669Y0020176D02*
X0044058Y0020176D01*
X0036384Y0020176D02*
X0035616Y0020176D01*
X0035616Y0021033D02*
X0034930Y0020925D01*
X0034246Y0020702D01*
X0033606Y0020376D01*
X0033024Y0019953D01*
X0032515Y0019445D01*
X0032093Y0018863D01*
X0031766Y0018222D01*
X0031544Y0017538D01*
X0031431Y0016828D01*
X0031431Y0013884D01*
X0035616Y0013884D01*
X0035616Y0021033D01*
X0035616Y0018978D02*
X0036384Y0018978D01*
X0036384Y0017779D02*
X0035616Y0017779D01*
X0035616Y0016581D02*
X0036384Y0016581D01*
X0036384Y0015382D02*
X0035616Y0015382D01*
X0035616Y0014184D02*
X0036384Y0014184D01*
X0031431Y0014184D02*
X0030168Y0014184D01*
X0030168Y0015382D02*
X0031431Y0015382D01*
X0031431Y0016581D02*
X0030168Y0016581D01*
X0029969Y0017779D02*
X0031622Y0017779D01*
X0032176Y0018978D02*
X0029386Y0018978D01*
X0028800Y0020176D02*
X0033331Y0020176D01*
X0028800Y0021375D02*
X0241000Y0021375D01*
X0241000Y0022573D02*
X0028800Y0022573D01*
X0028800Y0023772D02*
X0241000Y0023772D01*
X0241000Y0024970D02*
X0028800Y0024970D01*
X0023200Y0024970D02*
X0003500Y0024970D01*
X0003500Y0023772D02*
X0023200Y0023772D01*
X0023200Y0022573D02*
X0003500Y0022573D01*
X0003500Y0021375D02*
X0023200Y0021375D01*
X0023200Y0020176D02*
X0003500Y0020176D01*
X0003500Y0018978D02*
X0022614Y0018978D01*
X0022031Y0017779D02*
X0003500Y0017779D01*
X0003500Y0016581D02*
X0021831Y0016581D01*
X0021831Y0015382D02*
X0003500Y0015382D01*
X0003500Y0014184D02*
X0021831Y0014184D01*
X0021831Y0012985D02*
X0003500Y0012985D01*
X0003500Y0011787D02*
X0021831Y0011787D01*
X0021831Y0010588D02*
X0003500Y0010588D01*
X0003500Y0009390D02*
X0021961Y0009390D01*
X0022457Y0008191D02*
X0003500Y0008191D01*
X0003500Y0006993D02*
X0023651Y0006993D01*
X0028349Y0006993D02*
X0033099Y0006993D01*
X0032065Y0008191D02*
X0029542Y0008191D01*
X0030039Y0009390D02*
X0031567Y0009390D01*
X0031431Y0010588D02*
X0030168Y0010588D01*
X0030168Y0011787D02*
X0031431Y0011787D01*
X0031431Y0012985D02*
X0030168Y0012985D01*
X0023200Y0026169D02*
X0003500Y0026169D01*
X0003500Y0027367D02*
X0023200Y0027367D01*
X0023200Y0028566D02*
X0003500Y0028566D01*
X0003500Y0029764D02*
X0023200Y0029764D01*
X0023200Y0030963D02*
X0003500Y0030963D01*
X0003500Y0032161D02*
X0023200Y0032161D01*
X0023200Y0033360D02*
X0003500Y0033360D01*
X0003500Y0034558D02*
X0023200Y0034558D01*
X0023200Y0035757D02*
X0003500Y0035757D01*
X0003500Y0036955D02*
X0023200Y0036955D01*
X0023200Y0038154D02*
X0003500Y0038154D01*
X0003500Y0039352D02*
X0023200Y0039352D01*
X0023200Y0040551D02*
X0003500Y0040551D01*
X0003500Y0041749D02*
X0023200Y0041749D01*
X0023200Y0042948D02*
X0003500Y0042948D01*
X0003500Y0044146D02*
X0023200Y0044146D01*
X0023200Y0045345D02*
X0003500Y0045345D01*
X0003500Y0046543D02*
X0023200Y0046543D01*
X0023200Y0047742D02*
X0003500Y0047742D01*
X0003500Y0048940D02*
X0023200Y0048940D01*
X0023200Y0050139D02*
X0003500Y0050139D01*
X0003500Y0051337D02*
X0023200Y0051337D01*
X0023200Y0052536D02*
X0003500Y0052536D01*
X0003500Y0053734D02*
X0023200Y0053734D01*
X0023200Y0054933D02*
X0003500Y0054933D01*
X0003500Y0056132D02*
X0023200Y0056132D01*
X0023200Y0057330D02*
X0003500Y0057330D01*
X0003500Y0058529D02*
X0023200Y0058529D01*
X0023200Y0059727D02*
X0003500Y0059727D01*
X0003500Y0060926D02*
X0023200Y0060926D01*
X0023200Y0062124D02*
X0003500Y0062124D01*
X0003500Y0063323D02*
X0023200Y0063323D01*
X0023200Y0064521D02*
X0003500Y0064521D01*
X0003500Y0065720D02*
X0023200Y0065720D01*
X0023200Y0066918D02*
X0003500Y0066918D01*
X0003500Y0068117D02*
X0022520Y0068117D01*
X0021992Y0069315D02*
X0003500Y0069315D01*
X0003500Y0070514D02*
X0021831Y0070514D01*
X0018828Y0071712D02*
X0003500Y0071712D01*
X0003500Y0072911D02*
X0017630Y0072911D01*
X0018626Y0071914D02*
X0018626Y0071914D01*
X0016431Y0074109D02*
X0003500Y0074109D01*
X0003500Y0075308D02*
X0015233Y0075308D01*
X0014034Y0076506D02*
X0003500Y0076506D01*
X0003500Y0077705D02*
X0012835Y0077705D01*
X0011637Y0078903D02*
X0003500Y0078903D01*
X0003500Y0080102D02*
X0010438Y0080102D01*
X0009414Y0081126D02*
X0009414Y0081126D01*
X0009240Y0081300D02*
X0003500Y0081300D01*
X0003500Y0082499D02*
X0008384Y0082499D01*
X0028800Y0045345D02*
X0053863Y0045345D01*
X0053863Y0044146D02*
X0052865Y0044146D01*
X0053066Y0043946D02*
X0053066Y0043946D01*
X0057363Y0044146D02*
X0070247Y0044146D01*
X0070662Y0045345D02*
X0057363Y0045345D01*
X0060856Y0039352D02*
X0061293Y0039352D01*
X0061293Y0038154D02*
X0060856Y0038154D01*
X0060236Y0036955D02*
X0061913Y0036955D01*
X0064173Y0036955D02*
X0065406Y0036955D01*
X0069634Y0036955D02*
X0070867Y0036955D01*
X0073127Y0036955D02*
X0074804Y0036955D01*
X0074184Y0038154D02*
X0073747Y0038154D01*
X0073747Y0039352D02*
X0074184Y0039352D01*
X0077684Y0039352D02*
X0083138Y0039352D01*
X0083138Y0038154D02*
X0077684Y0038154D01*
X0077064Y0036955D02*
X0083138Y0036955D01*
X0083972Y0035757D02*
X0028800Y0035757D01*
X0028800Y0036955D02*
X0040428Y0036955D01*
X0039808Y0038154D02*
X0028800Y0038154D01*
X0028800Y0039352D02*
X0039808Y0039352D01*
X0037816Y0040551D02*
X0028800Y0040551D01*
X0028800Y0041749D02*
X0036855Y0041749D01*
X0036855Y0042948D02*
X0028800Y0042948D01*
X0028800Y0044146D02*
X0049767Y0044146D01*
X0052661Y0038154D02*
X0052879Y0038154D01*
X0052041Y0037534D02*
X0052041Y0037534D01*
X0051462Y0036955D02*
X0053499Y0036955D01*
X0057728Y0036955D02*
X0057976Y0036955D01*
X0049202Y0036955D02*
X0048149Y0036955D01*
X0043921Y0036955D02*
X0042688Y0036955D01*
X0073332Y0045345D02*
X0074599Y0045345D01*
X0077684Y0042948D02*
X0083138Y0042948D01*
X0083138Y0041749D02*
X0077684Y0041749D01*
X0077684Y0040551D02*
X0083138Y0040551D01*
X0086638Y0040551D02*
X0087075Y0040551D01*
X0087075Y0041749D02*
X0086638Y0041749D01*
X0086638Y0042948D02*
X0087075Y0042948D01*
X0137942Y0020176D02*
X0144058Y0020176D01*
X0143639Y0020002D02*
X0142466Y0018830D01*
X0141831Y0017298D01*
X0141831Y0009702D01*
X0142466Y0008170D01*
X0143639Y0006998D01*
X0145171Y0006363D01*
X0146829Y0006363D01*
X0148361Y0006998D01*
X0149534Y0008170D01*
X0150168Y0009702D01*
X0150168Y0017298D01*
X0149534Y0018830D01*
X0148361Y0020002D01*
X0146829Y0020637D01*
X0145171Y0020637D01*
X0143639Y0020002D01*
X0142614Y0018978D02*
X0139386Y0018978D01*
X0139969Y0017779D02*
X0142031Y0017779D01*
X0141831Y0016581D02*
X0140168Y0016581D01*
X0140168Y0015382D02*
X0141831Y0015382D01*
X0141831Y0014184D02*
X0140168Y0014184D01*
X0140168Y0012985D02*
X0141831Y0012985D01*
X0141831Y0011787D02*
X0140168Y0011787D01*
X0140168Y0010588D02*
X0141831Y0010588D01*
X0141961Y0009390D02*
X0140039Y0009390D01*
X0139542Y0008191D02*
X0142457Y0008191D01*
X0143651Y0006993D02*
X0138349Y0006993D01*
X0148349Y0006993D02*
X0153651Y0006993D01*
X0153639Y0006998D02*
X0155171Y0006363D01*
X0156829Y0006363D01*
X0158361Y0006998D01*
X0159534Y0008170D01*
X0160168Y0009702D01*
X0160168Y0017298D01*
X0159534Y0018830D01*
X0158361Y0020002D01*
X0156829Y0020637D01*
X0155171Y0020637D01*
X0153639Y0020002D01*
X0152466Y0018830D01*
X0151831Y0017298D01*
X0151831Y0009702D01*
X0152466Y0008170D01*
X0153639Y0006998D01*
X0152457Y0008191D02*
X0149542Y0008191D01*
X0150039Y0009390D02*
X0151961Y0009390D01*
X0151831Y0010588D02*
X0150168Y0010588D01*
X0150168Y0011787D02*
X0151831Y0011787D01*
X0151831Y0012985D02*
X0150168Y0012985D01*
X0150168Y0014184D02*
X0151831Y0014184D01*
X0151831Y0015382D02*
X0150168Y0015382D01*
X0150168Y0016581D02*
X0151831Y0016581D01*
X0152031Y0017779D02*
X0149969Y0017779D01*
X0149386Y0018978D02*
X0152614Y0018978D01*
X0154058Y0020176D02*
X0147942Y0020176D01*
X0157942Y0020176D02*
X0164058Y0020176D01*
X0163639Y0020002D02*
X0162466Y0018830D01*
X0161831Y0017298D01*
X0161831Y0009702D01*
X0162466Y0008170D01*
X0163639Y0006998D01*
X0165171Y0006363D01*
X0166829Y0006363D01*
X0168361Y0006998D01*
X0169534Y0008170D01*
X0170168Y0009702D01*
X0170168Y0017298D01*
X0169534Y0018830D01*
X0168361Y0020002D01*
X0166829Y0020637D01*
X0165171Y0020637D01*
X0163639Y0020002D01*
X0162614Y0018978D02*
X0159386Y0018978D01*
X0159969Y0017779D02*
X0162031Y0017779D01*
X0161831Y0016581D02*
X0160168Y0016581D01*
X0160168Y0015382D02*
X0161831Y0015382D01*
X0161831Y0014184D02*
X0160168Y0014184D01*
X0160168Y0012985D02*
X0161831Y0012985D01*
X0161831Y0011787D02*
X0160168Y0011787D01*
X0160168Y0010588D02*
X0161831Y0010588D01*
X0161961Y0009390D02*
X0160039Y0009390D01*
X0159542Y0008191D02*
X0162457Y0008191D01*
X0163651Y0006993D02*
X0158349Y0006993D01*
X0168349Y0006993D02*
X0173651Y0006993D01*
X0173639Y0006998D02*
X0175171Y0006363D01*
X0176829Y0006363D01*
X0178361Y0006998D01*
X0179534Y0008170D01*
X0180168Y0009702D01*
X0180168Y0017298D01*
X0179534Y0018830D01*
X0178361Y0020002D01*
X0176829Y0020637D01*
X0175171Y0020637D01*
X0173639Y0020002D01*
X0172466Y0018830D01*
X0171831Y0017298D01*
X0171831Y0009702D01*
X0172466Y0008170D01*
X0173639Y0006998D01*
X0172457Y0008191D02*
X0169542Y0008191D01*
X0170039Y0009390D02*
X0171961Y0009390D01*
X0171831Y0010588D02*
X0170168Y0010588D01*
X0170168Y0011787D02*
X0171831Y0011787D01*
X0171831Y0012985D02*
X0170168Y0012985D01*
X0170168Y0014184D02*
X0171831Y0014184D01*
X0171831Y0015382D02*
X0170168Y0015382D01*
X0170168Y0016581D02*
X0171831Y0016581D01*
X0172031Y0017779D02*
X0169969Y0017779D01*
X0169386Y0018978D02*
X0172614Y0018978D01*
X0174058Y0020176D02*
X0167942Y0020176D01*
X0177942Y0020176D02*
X0184058Y0020176D01*
X0183639Y0020002D02*
X0182466Y0018830D01*
X0181831Y0017298D01*
X0181831Y0009702D01*
X0182466Y0008170D01*
X0183639Y0006998D01*
X0185171Y0006363D01*
X0186829Y0006363D01*
X0188361Y0006998D01*
X0189534Y0008170D01*
X0190168Y0009702D01*
X0190168Y0017298D01*
X0189534Y0018830D01*
X0188361Y0020002D01*
X0186829Y0020637D01*
X0185171Y0020637D01*
X0183639Y0020002D01*
X0182614Y0018978D02*
X0179386Y0018978D01*
X0179969Y0017779D02*
X0182031Y0017779D01*
X0181831Y0016581D02*
X0180168Y0016581D01*
X0180168Y0015382D02*
X0181831Y0015382D01*
X0181831Y0014184D02*
X0180168Y0014184D01*
X0180168Y0012985D02*
X0181831Y0012985D01*
X0181831Y0011787D02*
X0180168Y0011787D01*
X0180168Y0010588D02*
X0181831Y0010588D01*
X0181961Y0009390D02*
X0180039Y0009390D01*
X0179542Y0008191D02*
X0182457Y0008191D01*
X0183651Y0006993D02*
X0178349Y0006993D01*
X0188349Y0006993D02*
X0193651Y0006993D01*
X0193639Y0006998D02*
X0195171Y0006363D01*
X0196829Y0006363D01*
X0198361Y0006998D01*
X0199534Y0008170D01*
X0200168Y0009702D01*
X0200168Y0017298D01*
X0199534Y0018830D01*
X0198361Y0020002D01*
X0196829Y0020637D01*
X0195171Y0020637D01*
X0193639Y0020002D01*
X0192466Y0018830D01*
X0191831Y0017298D01*
X0191831Y0009702D01*
X0192466Y0008170D01*
X0193639Y0006998D01*
X0192457Y0008191D02*
X0189542Y0008191D01*
X0190039Y0009390D02*
X0191961Y0009390D01*
X0191831Y0010588D02*
X0190168Y0010588D01*
X0190168Y0011787D02*
X0191831Y0011787D01*
X0191831Y0012985D02*
X0190168Y0012985D01*
X0190168Y0014184D02*
X0191831Y0014184D01*
X0191831Y0015382D02*
X0190168Y0015382D01*
X0190168Y0016581D02*
X0191831Y0016581D01*
X0192031Y0017779D02*
X0189969Y0017779D01*
X0189386Y0018978D02*
X0192614Y0018978D01*
X0194058Y0020176D02*
X0187942Y0020176D01*
X0192886Y0026169D02*
X0194692Y0026169D01*
X0194522Y0029764D02*
X0197723Y0029764D01*
X0197723Y0030963D02*
X0194728Y0030963D01*
X0194777Y0032161D02*
X0197723Y0032161D01*
X0197723Y0033360D02*
X0194777Y0033360D01*
X0193793Y0034430D02*
X0193793Y0034430D01*
X0193664Y0034558D02*
X0197851Y0034558D01*
X0199619Y0036955D02*
X0208281Y0036955D01*
X0207082Y0038154D02*
X0200817Y0038154D01*
X0201223Y0039352D02*
X0206677Y0039352D01*
X0206677Y0040551D02*
X0201223Y0040551D01*
X0201223Y0041749D02*
X0207423Y0041749D01*
X0206677Y0042948D02*
X0201223Y0042948D01*
X0201022Y0044146D02*
X0206878Y0044146D01*
X0208076Y0045345D02*
X0199823Y0045345D01*
X0200238Y0044930D02*
X0200238Y0044930D01*
X0195185Y0045345D02*
X0194472Y0045345D01*
X0191684Y0045345D02*
X0190425Y0045345D01*
X0190840Y0044146D02*
X0190885Y0044146D01*
X0191096Y0038154D02*
X0191277Y0038154D01*
X0191897Y0036955D02*
X0190297Y0036955D01*
X0188324Y0034430D02*
X0188324Y0034430D01*
X0194157Y0036955D02*
X0195390Y0036955D01*
X0201094Y0034558D02*
X0201344Y0034558D01*
X0206555Y0034558D02*
X0206805Y0034558D01*
X0210048Y0034558D02*
X0210742Y0034558D01*
X0210528Y0033360D02*
X0210263Y0033360D01*
X0212510Y0036955D02*
X0213742Y0036955D01*
X0216003Y0036955D02*
X0217679Y0036955D01*
X0217059Y0038154D02*
X0216622Y0038154D01*
X0216622Y0039352D02*
X0217059Y0039352D01*
X0219939Y0036955D02*
X0220188Y0036955D01*
X0222448Y0036955D02*
X0224124Y0036955D01*
X0223505Y0038154D02*
X0223068Y0038154D01*
X0223068Y0039352D02*
X0223505Y0039352D01*
X0227004Y0040551D02*
X0229950Y0040551D01*
X0229950Y0041749D02*
X0227004Y0041749D01*
X0227004Y0042948D02*
X0229950Y0042948D01*
X0229950Y0044146D02*
X0225820Y0044146D01*
X0225036Y0044930D02*
X0225036Y0044930D01*
X0224621Y0045345D02*
X0230365Y0045345D01*
X0221951Y0045345D02*
X0218176Y0045345D01*
X0218591Y0044930D02*
X0218591Y0044930D01*
X0219374Y0044146D02*
X0220753Y0044146D01*
X0221536Y0044930D02*
X0221536Y0044930D01*
X0215506Y0045345D02*
X0212714Y0045345D01*
X0213129Y0044930D02*
X0213129Y0044930D01*
X0213913Y0044146D02*
X0214307Y0044146D01*
X0215091Y0044930D02*
X0215091Y0044930D01*
X0226385Y0036955D02*
X0226633Y0036955D01*
X0223633Y0034558D02*
X0218462Y0034558D01*
X0218591Y0034430D02*
X0218591Y0034430D01*
X0219661Y0033360D02*
X0223505Y0033360D01*
X0223505Y0032161D02*
X0220559Y0032161D01*
X0220559Y0030963D02*
X0223505Y0030963D01*
X0223505Y0029764D02*
X0220559Y0029764D01*
X0217059Y0028566D02*
X0216622Y0028566D01*
X0216622Y0027367D02*
X0217059Y0027367D01*
X0217965Y0026169D02*
X0215716Y0026169D01*
X0214029Y0026169D02*
X0211239Y0026169D01*
X0212145Y0027367D02*
X0213122Y0027367D01*
X0213122Y0028566D02*
X0212145Y0028566D01*
X0212145Y0029764D02*
X0213122Y0029764D01*
X0213080Y0030963D02*
X0213122Y0030963D01*
X0213985Y0034558D02*
X0215219Y0034558D01*
X0215091Y0034430D02*
X0215091Y0034430D01*
X0208645Y0029764D02*
X0207668Y0029764D01*
X0207668Y0028566D02*
X0208645Y0028566D01*
X0208645Y0027367D02*
X0206976Y0027367D01*
X0205777Y0026169D02*
X0209552Y0026169D01*
X0207710Y0030963D02*
X0207668Y0030963D01*
X0202122Y0026169D02*
X0200316Y0026169D01*
X0197942Y0020176D02*
X0204058Y0020176D01*
X0203639Y0020002D02*
X0202466Y0018830D01*
X0201831Y0017298D01*
X0201831Y0009702D01*
X0202466Y0008170D01*
X0203639Y0006998D01*
X0205171Y0006363D01*
X0206829Y0006363D01*
X0208361Y0006998D01*
X0209534Y0008170D01*
X0210168Y0009702D01*
X0210168Y0017298D01*
X0209534Y0018830D01*
X0208361Y0020002D01*
X0206829Y0020637D01*
X0205171Y0020637D01*
X0203639Y0020002D01*
X0202614Y0018978D02*
X0199386Y0018978D01*
X0199969Y0017779D02*
X0202031Y0017779D01*
X0201831Y0016581D02*
X0200168Y0016581D01*
X0200168Y0015382D02*
X0201831Y0015382D01*
X0201831Y0014184D02*
X0200168Y0014184D01*
X0200168Y0012985D02*
X0201831Y0012985D01*
X0201831Y0011787D02*
X0200168Y0011787D01*
X0200168Y0010588D02*
X0201831Y0010588D01*
X0201961Y0009390D02*
X0200039Y0009390D01*
X0199542Y0008191D02*
X0202457Y0008191D01*
X0203651Y0006993D02*
X0198349Y0006993D01*
X0208349Y0006993D02*
X0213651Y0006993D01*
X0213639Y0006998D02*
X0215171Y0006363D01*
X0216829Y0006363D01*
X0218361Y0006998D01*
X0219534Y0008170D01*
X0220168Y0009702D01*
X0220168Y0017298D01*
X0219534Y0018830D01*
X0218361Y0020002D01*
X0216829Y0020637D01*
X0215171Y0020637D01*
X0213639Y0020002D01*
X0212466Y0018830D01*
X0211831Y0017298D01*
X0211831Y0009702D01*
X0212466Y0008170D01*
X0213639Y0006998D01*
X0212457Y0008191D02*
X0209542Y0008191D01*
X0210039Y0009390D02*
X0211961Y0009390D01*
X0211831Y0010588D02*
X0210168Y0010588D01*
X0210168Y0011787D02*
X0211831Y0011787D01*
X0211831Y0012985D02*
X0210168Y0012985D01*
X0210168Y0014184D02*
X0211831Y0014184D01*
X0211831Y0015382D02*
X0210168Y0015382D01*
X0210168Y0016581D02*
X0211831Y0016581D01*
X0212031Y0017779D02*
X0209969Y0017779D01*
X0209386Y0018978D02*
X0212614Y0018978D01*
X0214058Y0020176D02*
X0207942Y0020176D01*
X0217942Y0020176D02*
X0241000Y0020176D01*
X0241000Y0018978D02*
X0219386Y0018978D01*
X0219969Y0017779D02*
X0241000Y0017779D01*
X0241000Y0016581D02*
X0220168Y0016581D01*
X0220168Y0015382D02*
X0241000Y0015382D01*
X0241000Y0014184D02*
X0220168Y0014184D01*
X0220168Y0012985D02*
X0241000Y0012985D01*
X0241000Y0011787D02*
X0220168Y0011787D01*
X0220168Y0010588D02*
X0241000Y0010588D01*
X0241000Y0009390D02*
X0220039Y0009390D01*
X0219542Y0008191D02*
X0241000Y0008191D01*
X0241000Y0006993D02*
X0218349Y0006993D01*
X0219653Y0026169D02*
X0220474Y0026169D01*
X0226098Y0026169D02*
X0230856Y0026169D01*
X0229950Y0027367D02*
X0227004Y0027367D01*
X0227004Y0028566D02*
X0229950Y0028566D01*
X0228245Y0029764D02*
X0227004Y0029764D01*
X0227004Y0030963D02*
X0227982Y0030963D01*
X0232544Y0026169D02*
X0241000Y0026169D01*
X0241000Y0027367D02*
X0233450Y0027367D01*
X0233450Y0028566D02*
X0241000Y0028566D01*
X0241000Y0029764D02*
X0233450Y0029764D01*
X0233450Y0030963D02*
X0241000Y0030963D01*
X0241000Y0032161D02*
X0233450Y0032161D01*
X0233450Y0033360D02*
X0241000Y0033360D01*
X0241000Y0034558D02*
X0233322Y0034558D01*
X0182294Y0045345D02*
X0180487Y0045345D01*
X0180902Y0044930D02*
X0180902Y0044930D01*
X0162671Y0034558D02*
X0160453Y0034558D01*
X0162543Y0034430D02*
X0162543Y0034430D01*
X0148803Y0034558D02*
X0147562Y0034558D01*
X0193500Y0128500D02*
X0201000Y0126000D01*
M02*
