G75*
%MOIN*%
%OFA0B0*%
%FSLAX25Y25*%
%IPPOS*%
%LPD*%
%AMOC8*
5,1,8,0,0,1.08239X$1,22.5*
%
%ADD10C,0.00000*%
%ADD11R,0.04337X0.04731*%
%ADD12R,0.04731X0.04337*%
%ADD13R,0.01384X0.04337*%
%ADD14R,0.26900X0.07487*%
%ADD15OC8,0.16800*%
%ADD16C,0.06337*%
%ADD17R,0.12998X0.04337*%
%ADD18R,0.06699X0.07498*%
%ADD19R,0.07498X0.06699*%
%ADD20C,0.06400*%
D10*
X0001000Y0001000D02*
X0001000Y0193461D01*
X0249701Y0193461D01*
X0249701Y0001000D01*
X0001000Y0001000D01*
D11*
X0093500Y0117654D03*
X0093500Y0124346D03*
X0073500Y0132654D03*
X0073500Y0139346D03*
X0064346Y0141000D03*
X0057654Y0141000D03*
X0057654Y0131000D03*
X0064346Y0131000D03*
X0191000Y0135154D03*
X0191000Y0141846D03*
X0200154Y0143500D03*
X0206846Y0143500D03*
X0206846Y0133500D03*
X0200154Y0133500D03*
X0193500Y0124346D03*
X0193500Y0117654D03*
D12*
X0196000Y0064346D03*
X0196000Y0057654D03*
X0206000Y0057654D03*
X0206000Y0064346D03*
D13*
X0187437Y0105181D03*
X0185469Y0105181D03*
X0183500Y0105181D03*
X0181531Y0105181D03*
X0179563Y0105181D03*
X0179563Y0121819D03*
X0181531Y0121819D03*
X0183500Y0121819D03*
X0185469Y0121819D03*
X0187437Y0121819D03*
X0087437Y0121819D03*
X0085469Y0121819D03*
X0083500Y0121819D03*
X0081531Y0121819D03*
X0079563Y0121819D03*
X0079563Y0105181D03*
X0081531Y0105181D03*
X0083500Y0105181D03*
X0085469Y0105181D03*
X0087437Y0105181D03*
D14*
X0033500Y0124976D03*
X0033500Y0147024D03*
X0228500Y0147024D03*
X0228500Y0124976D03*
D15*
X0228500Y0101000D03*
X0228500Y0171000D03*
X0196000Y0171000D03*
X0168500Y0171000D03*
X0093500Y0171000D03*
X0066000Y0171000D03*
X0033500Y0171000D03*
X0033500Y0101000D03*
D16*
X0036000Y0076469D02*
X0036000Y0070531D01*
X0026000Y0070531D02*
X0026000Y0076469D01*
X0046000Y0076469D02*
X0046000Y0070531D01*
X0056000Y0070531D02*
X0056000Y0076469D01*
X0066000Y0076469D02*
X0066000Y0070531D01*
X0076000Y0070531D02*
X0076000Y0076469D01*
X0086000Y0076469D02*
X0086000Y0070531D01*
X0096000Y0070531D02*
X0096000Y0076469D01*
X0106000Y0076469D02*
X0106000Y0070531D01*
X0116000Y0070531D02*
X0116000Y0076469D01*
X0126000Y0076469D02*
X0126000Y0070531D01*
X0136000Y0070531D02*
X0136000Y0076469D01*
X0146000Y0076469D02*
X0146000Y0070531D01*
X0156000Y0070531D02*
X0156000Y0076469D01*
X0166000Y0076469D02*
X0166000Y0070531D01*
X0176000Y0070531D02*
X0176000Y0076469D01*
X0186000Y0076469D02*
X0186000Y0070531D01*
X0196000Y0070531D02*
X0196000Y0076469D01*
X0206000Y0076469D02*
X0206000Y0070531D01*
X0216000Y0070531D02*
X0216000Y0076469D01*
X0216000Y0016469D02*
X0216000Y0010531D01*
X0206000Y0010531D02*
X0206000Y0016469D01*
X0196000Y0016469D02*
X0196000Y0010531D01*
X0186000Y0010531D02*
X0186000Y0016469D01*
X0176000Y0016469D02*
X0176000Y0010531D01*
X0166000Y0010531D02*
X0166000Y0016469D01*
X0156000Y0016469D02*
X0156000Y0010531D01*
X0146000Y0010531D02*
X0146000Y0016469D01*
X0136000Y0016469D02*
X0136000Y0010531D01*
X0126000Y0010531D02*
X0126000Y0016469D01*
X0116000Y0016469D02*
X0116000Y0010531D01*
X0106000Y0010531D02*
X0106000Y0016469D01*
X0096000Y0016469D02*
X0096000Y0010531D01*
X0086000Y0010531D02*
X0086000Y0016469D01*
X0076000Y0016469D02*
X0076000Y0010531D01*
X0066000Y0010531D02*
X0066000Y0016469D01*
X0056000Y0016469D02*
X0056000Y0010531D01*
X0046000Y0010531D02*
X0046000Y0016469D01*
X0036000Y0016469D02*
X0036000Y0010531D01*
X0026000Y0010531D02*
X0026000Y0016469D01*
D17*
X0116000Y0088500D03*
X0116000Y0108500D03*
X0116000Y0118500D03*
X0116000Y0128500D03*
X0146000Y0128500D03*
X0146000Y0118500D03*
X0146236Y0108500D03*
X0146000Y0088500D03*
D18*
X0104098Y0148500D03*
X0092902Y0148500D03*
X0084098Y0148500D03*
X0072902Y0148500D03*
D19*
X0166000Y0144098D03*
X0166000Y0132902D03*
X0166000Y0124098D03*
X0166000Y0112902D03*
D20*
X0146500Y0153500D02*
X0140500Y0153500D01*
X0121500Y0153500D02*
X0115500Y0153500D01*
X0115500Y0173500D02*
X0121500Y0173500D01*
X0140500Y0173500D02*
X0146500Y0173500D01*
M02*
