%
M48
M72
T01C0.02362
T02C0.03937
T03C0.04000
T04C0.06300
%
T01
X108500Y93500
X101000Y116000
X93500Y131000
X61000Y148500
X79563Y95914
X161000Y91000
X201000Y116000
X201000Y126000
X173500Y143500
T02
X26000Y73500
X36000Y73500
X46000Y73500
X56000Y73500
X66000Y73500
X76000Y73500
X86000Y73500
X96000Y73500
X106000Y73500
X116000Y73500
X126000Y73500
X136000Y73500
X146000Y73500
X156000Y73500
X166000Y73500
X176000Y73500
X186000Y73500
X196000Y73500
X206000Y73500
X216000Y73500
X216000Y13500
X206000Y13500
X196000Y13500
X186000Y13500
X176000Y13500
X166000Y13500
X156000Y13500
X146000Y13500
X136000Y13500
X126000Y13500
X116000Y13500
X106000Y13500
X96000Y13500
X86000Y13500
X76000Y13500
X66000Y13500
X56000Y13500
X46000Y13500
X36000Y13500
X26000Y13500
T03
X118500Y153500
X143500Y153500
X143500Y173500
X118500Y173500
T04
X33500Y171000
X66000Y171000
X93500Y171000
X168500Y171000
X196000Y171000
X228500Y171000
X228500Y101000
X33500Y101000
M30
